Commissioner-BlackStraightWedge.ufo
<glyph name="ampersand" format="2">
  <advance width="797"/>
  <unicode hex="0026"/>
  <outline>
    <contour>
      <point x="531" y="0" type="curve"/>
      <point x="797" y="0" type="line"/>
      <point x="724" y="82"/>
      <point x="652" y="164"/>
      <point x="579" y="246" type="curve"/>
      <point x="386" y="464" type="line" smooth="yes"/>
      <point x="354" y="500"/>
      <point x="338" y="522"/>
      <point x="338" y="552" type="curve" smooth="yes"/>
      <point x="338" y="582"/>
      <point x="357" y="598"/>
      <point x="380" y="598" type="curve"/>
      <point x="404" y="598"/>
      <point x="419" y="576"/>
      <point x="419" y="550" type="curve" smooth="yes"/>
      <point x="419" y="519"/>
      <point x="400" y="488"/>
      <point x="365" y="465" type="curve"/>
      <point x="445" y="376" type="line"/>
      <point x="505" y="408"/>
      <point x="592" y="456"/>
      <point x="592" y="561" type="curve" smooth="yes"/>
      <point x="592" y="668"/>
      <point x="503" y="729"/>
      <point x="369" y="729" type="curve" smooth="yes"/>
      <point x="236" y="729"/>
      <point x="128" y="669"/>
      <point x="128" y="544" type="curve" smooth="yes"/>
      <point x="128" y="480"/>
      <point x="158" y="425"/>
      <point x="206" y="370" type="curve" smooth="yes"/>
      <point x="411" y="136" type="line"/>
      <point x="451" y="91"/>
      <point x="491" y="45"/>
    </contour>
    <contour>
      <point x="250" y="-14" type="curve" smooth="yes"/>
      <point x="343" y="-14"/>
      <point x="409" y="19"/>
      <point x="456" y="73" type="curve"/>
      <point x="472" y="73" type="line"/>
      <point x="473" y="94" type="line"/>
      <point x="384" y="186" type="line"/>
      <point x="366" y="167"/>
      <point x="336" y="155"/>
      <point x="306" y="155" type="curve"/>
      <point x="259" y="155"/>
      <point x="235" y="186"/>
      <point x="235" y="223" type="curve" smooth="yes"/>
      <point x="235" y="249"/>
      <point x="247" y="278"/>
      <point x="278" y="301" type="curve"/>
      <point x="187" y="412" type="line"/>
      <point x="95" y="371"/>
      <point x="20" y="302"/>
      <point x="20" y="186" type="curve" smooth="yes"/>
      <point x="20" y="71"/>
      <point x="97" y="-14"/>
    </contour>
    <contour>
      <point x="612" y="165" type="line"/>
      <point x="667" y="222"/>
      <point x="721" y="279"/>
      <point x="776" y="336" type="curve"/>
      <point x="602" y="449" type="line"/>
      <point x="566" y="394"/>
      <point x="531" y="338"/>
      <point x="495" y="283" type="curve"/>
    </contour>
  </outline>
</glyph>
<glyph name="quotesingle" format="2">
  <advance width="252"/>
  <unicode hex="0027"/>
  <outline>
    <contour>
      <point x="44" y="359" type="curve"/>
      <point x="203" y="360" type="line"/>
      <point x="211" y="490"/>
      <point x="219" y="618"/>
      <point x="228" y="745" type="curve"/>
      <point x="19" y="740" type="line"/>
      <point x="28" y="614"/>
      <point x="36" y="487"/>
    </contour>
  </outline>
</glyph>
<glyph name="parenleft" format="2">
  <advance width="441"/>
  <unicode hex="0028"/>
  <outline>
    <contour>
      <point x="294" y="-145" type="curve"/>
      <point x="426" y="-83" type="line"/>
      <point x="335" y="0"/>
      <point x="254" y="124"/>
      <point x="254" y="323" type="curve" smooth="yes"/>
      <point x="254" y="522"/>
      <point x="335" y="646"/>
      <point x="426" y="729" type="curve"/>
      <point x="294" y="791" type="line"/>
      <point x="139" y="709"/>
      <point x="30" y="543"/>
      <point x="30" y="323" type="curve" smooth="yes"/>
      <point x="30" y="104"/>
      <point x="139" y="-63"/>
    </contour>
  </outline>
</glyph>
<glyph name="asterisk" format="2">
  <advance width="519"/>
  <unicode hex="002A"/>
  <outline>
    <contour>
      <point x="428" y="339" type="curve"/>
      <point x="496" y="457" type="line"/>
      <point x="424" y="488"/>
      <point x="351" y="518"/>
      <point x="279" y="549" type="curve"/>
      <point x="216" y="596"/>
      <point x="154" y="644"/>
      <point x="91" y="691" type="curve"/>
      <point x="23" y="573" type="line"/>
      <point x="95" y="542"/>
      <point x="168" y="512"/>
      <point x="240" y="481" type="curve"/>
      <point x="303" y="434"/>
      <point x="365" y="386"/>
    </contour>
    <contour>
      <point x="91" y="339" type="line"/>
      <point x="154" y="386"/>
      <point x="216" y="434"/>
      <point x="279" y="481" type="curve"/>
      <point x="351" y="512"/>
      <point x="424" y="542"/>
      <point x="496" y="573" type="curve"/>
      <point x="428" y="691" type="line"/>
      <point x="365" y="644"/>
      <point x="303" y="596"/>
      <point x="240" y="549" type="curve"/>
      <point x="168" y="518"/>
      <point x="95" y="488"/>
      <point x="23" y="457" type="curve"/>
    </contour>
    <contour>
      <point x="191" y="281" type="curve"/>
      <point x="328" y="281" type="line"/>
      <point x="318" y="359"/>
      <point x="309" y="437"/>
      <point x="299" y="515" type="curve"/>
      <point x="309" y="593"/>
      <point x="318" y="671"/>
      <point x="328" y="749" type="curve"/>
      <point x="191" y="749" type="line"/>
      <point x="201" y="671"/>
      <point x="210" y="593"/>
      <point x="220" y="515" type="curve"/>
      <point x="210" y="437"/>
      <point x="201" y="359"/>
    </contour>
  </outline>
</glyph>
<glyph name="plus" format="2">
  <advance width="610"/>
  <unicode hex="002B"/>
  <outline>
    <contour>
      <point x="207" y="44" type="curve"/>
      <point x="403" y="44" type="line"/>
      <point x="403" y="119"/>
      <point x="403" y="195"/>
      <point x="403" y="252" type="curve"/>
      <point x="403" y="366" type="line"/>
      <point x="403" y="423"/>
      <point x="403" y="499"/>
      <point x="403" y="574" type="curve"/>
      <point x="207" y="574" type="line"/>
      <point x="207" y="499"/>
      <point x="207" y="423"/>
      <point x="207" y="366" type="curve"/>
      <point x="207" y="252" type="line"/>
      <point x="207" y="195"/>
      <point x="207" y="119"/>
    </contour>
    <contour>
      <point x="40" y="214" type="line"/>
      <point x="115" y="214"/>
      <point x="191" y="214"/>
      <point x="248" y="214" type="curve"/>
      <point x="362" y="214" type="line"/>
      <point x="419" y="214"/>
      <point x="495" y="214"/>
      <point x="570" y="214" type="curve"/>
      <point x="570" y="404" type="line"/>
      <point x="495" y="404"/>
      <point x="419" y="404"/>
      <point x="362" y="404" type="curve"/>
      <point x="248" y="404" type="line"/>
      <point x="191" y="404"/>
      <point x="115" y="404"/>
      <point x="40" y="404" type="curve"/>
    </contour>
  </outline>
</glyph>
<glyph name="slash" format="2">
  <advance width="464"/>
  <unicode hex="002F"/>
  <outline>
    <contour>
      <point x="1" y="0" type="curve"/>
      <point x="213" y="0" type="line"/>
      <point x="239" y="74"/>
      <point x="261" y="137"/>
      <point x="293" y="228" type="curve"/>
      <point x="379" y="474" type="line"/>
      <point x="413" y="571"/>
      <point x="436" y="636"/>
      <point x="463" y="713" type="curve"/>
      <point x="251" y="713" type="line"/>
      <point x="224" y="636"/>
      <point x="201" y="570"/>
      <point x="168" y="476" type="curve"/>
      <point x="81" y="228" type="line"/>
      <point x="49" y="137"/>
      <point x="27" y="74"/>
    </contour>
  </outline>
</glyph>
<glyph name="zero" format="2">
  <advance width="678"/>
  <unicode hex="0030"/>
  <outline>
    <contour>
      <point x="342" y="-15" type="curve" smooth="yes"/>
      <point x="554" y="-15"/>
      <point x="648" y="131"/>
      <point x="648" y="345" type="curve" smooth="yes"/>
      <point x="648" y="553"/>
      <point x="559" y="706"/>
      <point x="337" y="706" type="curve" smooth="yes"/>
      <point x="116" y="706"/>
      <point x="30" y="553"/>
      <point x="30" y="344" type="curve" smooth="yes"/>
      <point x="30" y="148"/>
      <point x="111" y="-15"/>
    </contour>
    <contour>
      <point x="340" y="172" type="curve"/>
      <point x="284" y="172"/>
      <point x="267" y="243"/>
      <point x="267" y="345" type="curve" smooth="yes"/>
      <point x="267" y="451"/>
      <point x="287" y="518"/>
      <point x="340" y="518" type="curve"/>
      <point x="391" y="518"/>
      <point x="412" y="450"/>
      <point x="412" y="345" type="curve" smooth="yes"/>
      <point x="412" y="243"/>
      <point x="394" y="172"/>
    </contour>
  </outline>
</glyph>
<glyph name="one" format="2">
  <advance width="480"/>
  <unicode hex="0031"/>
  <outline>
    <contour>
      <point x="62" y="390" type="line"/>
      <point x="142" y="425"/>
      <point x="221" y="460"/>
      <point x="301" y="495" type="curve"/>
      <point x="310" y="696" type="line"/>
      <point x="210" y="652"/>
      <point x="110" y="608"/>
      <point x="10" y="564" type="curve"/>
    </contour>
    <contour>
      <point x="190" y="0" type="curve"/>
      <point x="420" y="0" type="line"/>
      <point x="420" y="69"/>
      <point x="420" y="129"/>
      <point x="420" y="213" type="curve"/>
      <point x="420" y="449" type="line"/>
      <point x="420" y="528"/>
      <point x="420" y="607"/>
      <point x="420" y="690" type="curve"/>
      <point x="310" y="696" type="line"/>
      <point x="190" y="597" type="line"/>
      <point x="190" y="531"/>
      <point x="190" y="466"/>
      <point x="190" y="400" type="curve"/>
      <point x="190" y="213" type="line"/>
      <point x="190" y="129"/>
      <point x="190" y="69"/>
    </contour>
  </outline>
</glyph>
<glyph name="four" format="2">
  <advance width="629"/>
  <unicode hex="0034"/>
  <outline>
    <contour>
      <point x="305" y="0" type="curve"/>
      <point x="535" y="0" type="line"/>
      <point x="535" y="69"/>
      <point x="535" y="129"/>
      <point x="535" y="213" type="curve"/>
      <point x="535" y="449" type="line"/>
      <point x="535" y="528"/>
      <point x="535" y="607"/>
      <point x="535" y="690" type="curve"/>
      <point x="308" y="690" type="line"/>
      <point x="280" y="651"/>
      <point x="252" y="611"/>
      <point x="224" y="572" type="curve"/>
      <point x="147" y="463" type="line"/>
      <point x="108" y="408"/>
      <point x="55" y="333"/>
      <point x="18" y="281" type="curve"/>
      <point x="18" y="130" type="line"/>
      <point x="380" y="130" type="line"/>
      <point x="446" y="130"/>
      <point x="542" y="130"/>
      <point x="602" y="130" type="curve"/>
      <point x="602" y="324" type="line"/>
      <point x="542" y="324"/>
      <point x="446" y="324"/>
      <point x="380" y="324" type="curve"/>
      <point x="362" y="304" type="line"/>
      <point x="196" y="304" type="line"/>
      <point x="202" y="291" type="line"/>
      <point x="229" y="329"/>
      <point x="255" y="367"/>
      <point x="282" y="405" type="curve"/>
      <point x="382" y="548" type="line"/>
      <point x="413" y="592"/>
      <point x="443" y="635"/>
      <point x="475" y="680" type="curve"/>
      <point x="325" y="597" type="line"/>
      <point x="325" y="531"/>
      <point x="325" y="466"/>
      <point x="325" y="400" type="curve"/>
      <point x="325" y="241" type="line"/>
      <point x="305" y="213" type="line"/>
      <point x="305" y="129"/>
      <point x="305" y="69"/>
    </contour>
  </outline>
</glyph>
<glyph name="five" format="2">
  <advance width="593"/>
  <unicode hex="0035"/>
  <outline>
    <contour>
      <point x="279" y="-16" type="curve" smooth="yes"/>
      <point x="478" y="-16"/>
      <point x="565" y="83"/>
      <point x="565" y="224" type="curve" smooth="yes"/>
      <point x="565" y="360"/>
      <point x="480" y="431"/>
      <point x="371" y="431" type="curve" smooth="yes"/>
      <point x="334" y="431"/>
      <point x="304" y="423"/>
      <point x="275" y="409" type="curve"/>
      <point x="259" y="409" type="line"/>
      <point x="260" y="436" type="line"/>
      <point x="261" y="479"/>
      <point x="263" y="523"/>
      <point x="264" y="566" type="curve"/>
      <point x="208" y="496" type="line"/>
      <point x="305" y="496" type="line"/>
      <point x="381" y="496"/>
      <point x="459" y="496"/>
      <point x="536" y="496" type="curve"/>
      <point x="536" y="690" type="line"/>
      <point x="64" y="690" type="line"/>
      <point x="64" y="602"/>
      <point x="64" y="504"/>
      <point x="64" y="400" type="curve"/>
      <point x="64" y="276" type="line"/>
      <point x="161" y="269" type="line"/>
      <point x="186" y="282"/>
      <point x="220" y="287"/>
      <point x="247" y="287" type="curve"/>
      <point x="302" y="287"/>
      <point x="328" y="266"/>
      <point x="328" y="230" type="curve" smooth="yes"/>
      <point x="328" y="193"/>
      <point x="309" y="174"/>
      <point x="255" y="174" type="curve"/>
      <point x="191" y="174"/>
      <point x="115" y="202"/>
      <point x="45" y="237" type="curve"/>
      <point x="30" y="32" type="line"/>
      <point x="83" y="7"/>
      <point x="174" y="-16"/>
    </contour>
  </outline>
</glyph>
<glyph name="six" format="2">
  <advance width="628"/>
  <unicode hex="0036"/>
  <outline>
    <contour>
      <point x="331" y="-16" type="curve" smooth="yes"/>
      <point x="522" y="-16"/>
      <point x="600" y="105"/>
      <point x="600" y="229" type="curve" smooth="yes"/>
      <point x="600" y="359"/>
      <point x="513" y="432"/>
      <point x="398" y="432" type="curve" smooth="yes"/>
      <point x="339" y="432"/>
      <point x="294" y="413"/>
      <point x="270" y="395" type="curve"/>
      <point x="250" y="395" type="line"/>
      <point x="196" y="338"/>
      <point x="194" y="324"/>
      <point x="252" y="264" type="curve"/>
      <point x="273" y="287"/>
      <point x="300" y="291"/>
      <point x="321" y="291" type="curve"/>
      <point x="354" y="291"/>
      <point x="373" y="269"/>
      <point x="373" y="234" type="curve" smooth="yes"/>
      <point x="373" y="198"/>
      <point x="353" y="174"/>
      <point x="320" y="174" type="curve"/>
      <point x="284" y="174"/>
      <point x="253" y="213"/>
      <point x="253" y="340" type="curve" smooth="yes"/>
      <point x="253" y="467"/>
      <point x="273" y="516"/>
      <point x="364" y="516" type="curve"/>
      <point x="418" y="516"/>
      <point x="483" y="499"/>
      <point x="539" y="470" type="curve"/>
      <point x="556" y="672" type="line"/>
      <point x="493" y="691"/>
      <point x="427" y="706"/>
      <point x="348" y="706" type="curve" smooth="yes"/>
      <point x="171" y="706"/>
      <point x="30" y="616"/>
      <point x="30" y="345" type="curve" smooth="yes"/>
      <point x="30" y="105"/>
      <point x="127" y="-16"/>
    </contour>
  </outline>
</glyph>
<glyph name="seven" format="2">
  <advance width="573"/>
  <unicode hex="0037"/>
  <outline>
    <contour>
      <point x="69" y="0" type="curve"/>
      <point x="320" y="0" type="line"/>
      <point x="350" y="71"/>
      <point x="379" y="139"/>
      <point x="409" y="210" type="curve"/>
      <point x="460" y="331" type="line"/>
      <point x="490" y="402"/>
      <point x="518" y="468"/>
      <point x="548" y="539" type="curve"/>
      <point x="548" y="690" type="line"/>
      <point x="25" y="690" type="line"/>
      <point x="25" y="496" type="line"/>
      <point x="95" y="496"/>
      <point x="164" y="496"/>
      <point x="233" y="496" type="curve"/>
      <point x="350" y="496" type="line"/>
      <point x="305" y="539" type="line"/>
      <point x="286" y="496"/>
      <point x="267" y="452"/>
      <point x="248" y="409" type="curve"/>
      <point x="170" y="231" type="line"/>
      <point x="137" y="155"/>
      <point x="103" y="77"/>
    </contour>
  </outline>
</glyph>
<glyph name="less" format="2">
  <advance width="590"/>
  <unicode hex="003C"/>
  <outline>
    <contour>
      <point x="550" y="33" type="curve"/>
      <point x="550" y="233" type="line"/>
      <point x="503" y="248"/>
      <point x="456" y="263"/>
      <point x="409" y="278" type="curve"/>
      <point x="335" y="301" type="line"/>
      <point x="335" y="317" type="line"/>
      <point x="409" y="340" type="line"/>
      <point x="456" y="355"/>
      <point x="503" y="370"/>
      <point x="550" y="385" type="curve"/>
      <point x="550" y="585" type="line"/>
      <point x="475" y="559"/>
      <point x="404" y="533"/>
      <point x="342" y="511" type="curve"/>
      <point x="248" y="478" type="line"/>
      <point x="186" y="456"/>
      <point x="115" y="430"/>
      <point x="40" y="404" type="curve"/>
      <point x="40" y="214" type="line"/>
      <point x="115" y="188"/>
      <point x="186" y="162"/>
      <point x="248" y="140" type="curve"/>
      <point x="342" y="107" type="line"/>
      <point x="404" y="85"/>
      <point x="475" y="59"/>
    </contour>
  </outline>
</glyph>
<glyph name="at" format="2">
  <advance width="902"/>
  <unicode hex="0040"/>
  <outline>
    <contour>
      <point x="480" y="-157" type="curve" smooth="yes"/>
      <point x="585" y="-157"/>
      <point x="678" y="-135"/>
      <point x="764" y="-85" type="curve"/>
      <point x="764" y="51" type="line"/>
      <point x="650" y="-20"/>
      <point x="553" y="-37"/>
      <point x="480" y="-37" type="curve" smooth="yes"/>
      <point x="230" y="-37"/>
      <point x="115" y="119"/>
      <point x="164" y="338" type="curve" smooth="yes"/>
      <point x="196" y="482"/>
      <point x="292" y="597"/>
      <point x="475" y="597" type="curve"/>
      <point x="665" y="597"/>
      <point x="778" y="483"/>
      <point x="739" y="287" type="curve" smooth="yes"/>
      <point x="726" y="221"/>
      <point x="692" y="179"/>
      <point x="656" y="179" type="curve"/>
      <point x="623" y="179"/>
      <point x="614" y="212"/>
      <point x="632" y="297" type="curve"/>
      <point x="640" y="334" type="line"/>
      <point x="651" y="385"/>
      <point x="664" y="443"/>
      <point x="674" y="490" type="curve"/>
      <point x="522" y="482" type="line"/>
      <point x="505" y="432" type="line"/>
      <point x="492" y="432" type="line"/>
      <point x="475" y="475"/>
      <point x="440" y="495"/>
      <point x="396" y="495" type="curve" smooth="yes"/>
      <point x="304" y="495"/>
      <point x="243" y="409"/>
      <point x="224" y="314" type="curve" smooth="yes"/>
      <point x="198" y="183"/>
      <point x="256" y="67"/>
      <point x="363" y="67" type="curve" smooth="yes"/>
      <point x="403" y="67"/>
      <point x="445" y="83"/>
      <point x="472" y="135" type="curve"/>
      <point x="484" y="135" type="line"/>
      <point x="509" y="90"/>
      <point x="573" y="59"/>
      <point x="656" y="59" type="curve" smooth="yes"/>
      <point x="731" y="59"/>
      <point x="839" y="106"/>
      <point x="869" y="261" type="curve" smooth="yes"/>
      <point x="918" y="515"/>
      <point x="748" y="717"/>
      <point x="477" y="717" type="curve" smooth="yes"/>
      <point x="279" y="717"/>
      <point x="89" y="610"/>
      <point x="37" y="367" type="curve" smooth="yes"/>
      <point x="-24" y="83"/>
      <point x="144" y="-157"/>
    </contour>
    <contour>
      <point x="418" y="218" type="curve"/>
      <point x="394" y="218"/>
      <point x="386" y="254"/>
      <point x="392" y="282" type="curve" smooth="yes"/>
      <point x="399" y="316"/>
      <point x="418" y="341"/>
      <point x="443" y="341" type="curve"/>
      <point x="453" y="341"/>
      <point x="463" y="335"/>
      <point x="467" y="328" type="curve"/>
      <point x="448" y="239" type="line"/>
      <point x="442" y="227"/>
      <point x="431" y="218"/>
    </contour>
  </outline>
</glyph>
<glyph name="D" format="2">
  <advance width="730"/>
  <unicode hex="0044"/>
  <anchor x="355" y="0" name="bottom"/>
  <anchor x="365" y="357" name="center"/>
  <anchor x="355" y="713" name="top"/>
  <outline>
    <contour>
      <point x="46" y="0" type="curve"/>
      <point x="123" y="0"/>
      <point x="212" y="0"/>
      <point x="319" y="0" type="curve"/>
      <point x="607" y="0"/>
      <point x="706" y="156"/>
      <point x="706" y="358" type="curve" smooth="yes"/>
      <point x="706" y="587"/>
      <point x="580" y="713"/>
      <point x="366" y="713" type="curve"/>
      <point x="248" y="713"/>
      <point x="124" y="713"/>
      <point x="46" y="713" type="curve"/>
      <point x="46" y="636"/>
      <point x="46" y="569"/>
      <point x="46" y="474" type="curve"/>
      <point x="46" y="229" type="line"/>
      <point x="46" y="138"/>
      <point x="46" y="74"/>
    </contour>
    <contour>
      <point x="292" y="193" type="line"/>
      <point x="292" y="220"/>
      <point x="292" y="250"/>
      <point x="292" y="293" type="curve"/>
      <point x="292" y="412" type="line"/>
      <point x="292" y="459"/>
      <point x="292" y="490"/>
      <point x="292" y="520" type="curve"/>
      <point x="323" y="520" type="line"/>
      <point x="413" y="520"/>
      <point x="450" y="455"/>
      <point x="450" y="361" type="curve" smooth="yes"/>
      <point x="450" y="264"/>
      <point x="416" y="193"/>
      <point x="318" y="193" type="curve"/>
    </contour>
  </outline>
</glyph>
<glyph name="G" format="2">
  <advance width="725"/>
  <unicode hex="0047"/>
  <anchor x="393" y="0" name="bottom"/>
  <anchor x="393" y="713" name="top"/>
  <outline>
    <contour>
      <point x="414" y="-15" type="curve" smooth="yes"/>
      <point x="521" y="-15"/>
      <point x="635" y="1"/>
      <point x="679" y="18" type="curve"/>
      <point x="650" y="231" type="line"/>
      <point x="580" y="193"/>
      <point x="527" y="177"/>
      <point x="437" y="177" type="curve"/>
      <point x="331" y="177"/>
      <point x="278" y="260"/>
      <point x="278" y="354" type="curve" smooth="yes"/>
      <point x="278" y="473"/>
      <point x="351" y="524"/>
      <point x="434" y="524" type="curve"/>
      <point x="489" y="524"/>
      <point x="566" y="503"/>
      <point x="652" y="453" type="curve"/>
      <point x="669" y="677" type="line"/>
      <point x="607" y="705"/>
      <point x="513" y="729"/>
      <point x="413" y="729" type="curve" smooth="yes"/>
      <point x="162" y="729"/>
      <point x="24" y="576"/>
      <point x="24" y="355" type="curve" smooth="yes"/>
      <point x="24" y="135"/>
      <point x="171" y="-15"/>
    </contour>
    <contour>
      <point x="450" y="13" type="curve"/>
      <point x="679" y="18" type="line"/>
      <point x="679" y="91"/>
      <point x="679" y="147"/>
      <point x="679" y="207" type="curve"/>
      <point x="679" y="276"/>
      <point x="679" y="325"/>
      <point x="679" y="381" type="curve"/>
      <point x="450" y="381" type="line"/>
      <point x="450" y="325"/>
      <point x="450" y="276"/>
      <point x="450" y="207" type="curve"/>
      <point x="450" y="147"/>
      <point x="450" y="91"/>
    </contour>
  </outline>
</glyph>
<glyph name="I" format="2">
  <advance width="353"/>
  <unicode hex="0049"/>
  <anchor x="172" y="0" name="bottom"/>
  <anchor x="302" y="0" name="ogonek"/>
  <anchor x="172" y="713" name="top"/>
  <anchor x="26" y="713" name="topleft"/>
  <outline>
    <contour>
      <point x="51" y="0" type="curve"/>
      <point x="302" y="0" type="line"/>
      <point x="302" y="74"/>
      <point x="302" y="138"/>
      <point x="302" y="229" type="curve"/>
      <point x="302" y="474" type="line"/>
      <point x="302" y="569"/>
      <point x="302" y="636"/>
      <point x="302" y="713" type="curve"/>
      <point x="51" y="713" type="line"/>
      <point x="51" y="636"/>
      <point x="51" y="569"/>
      <point x="51" y="474" type="curve"/>
      <point x="51" y="229" type="line"/>
      <point x="51" y="138"/>
      <point x="51" y="74"/>
    </contour>
  </outline>
</glyph>
<glyph name="K" format="2">
  <advance width="729"/>
  <unicode hex="004B"/>
  <anchor x="371" y="0" name="bottom"/>
  <anchor x="371" y="713" name="top"/>
  <outline>
    <contour>
      <point x="430" y="0" type="curve"/>
      <point x="721" y="0" type="line"/>
      <point x="684" y="68"/>
      <point x="620" y="184"/>
      <point x="574" y="269" type="curve"/>
      <point x="472" y="456" type="line"/>
      <point x="477" y="348" type="line"/>
      <point x="569" y="490" type="line"/>
      <point x="618" y="565"/>
      <point x="664" y="638"/>
      <point x="713" y="713" type="curve"/>
      <point x="437" y="713" type="line"/>
      <point x="406" y="651"/>
      <point x="385" y="609"/>
      <point x="362" y="563" type="curve"/>
      <point x="314" y="467" type="line"/>
      <point x="275" y="467" type="line"/>
      <point x="275" y="278" type="line"/>
      <point x="318" y="278" type="line"/>
      <point x="367" y="156" type="line"/>
      <point x="387" y="106"/>
      <point x="407" y="57"/>
    </contour>
    <contour>
      <point x="46" y="0" type="curve"/>
      <point x="291" y="0" type="line"/>
      <point x="291" y="74"/>
      <point x="291" y="138"/>
      <point x="291" y="229" type="curve"/>
      <point x="291" y="474" type="line"/>
      <point x="291" y="569"/>
      <point x="291" y="636"/>
      <point x="291" y="713" type="curve"/>
      <point x="46" y="713" type="line"/>
      <point x="46" y="636"/>
      <point x="46" y="569"/>
      <point x="46" y="474" type="curve"/>
      <point x="46" y="229" type="line"/>
      <point x="46" y="138"/>
      <point x="46" y="74"/>
    </contour>
  </outline>
</glyph>
<glyph name="L" format="2">
  <advance width="574"/>
  <unicode hex="004C"/>
  <anchor x="298" y="0" name="bottom"/>
  <anchor x="455" y="360" name="center"/>
  <anchor x="257" y="713" name="top"/>
  <anchor x="326" y="502" name="topright"/>
  <outline>
    <contour>
      <point x="46" y="0" type="curve"/>
      <point x="292" y="0" type="line"/>
      <point x="292" y="40" type="line"/>
      <point x="292" y="114"/>
      <point x="292" y="178"/>
      <point x="292" y="269" type="curve"/>
      <point x="292" y="474" type="line"/>
      <point x="292" y="569"/>
      <point x="292" y="636"/>
      <point x="292" y="713" type="curve"/>
      <point x="46" y="713" type="line"/>
      <point x="46" y="636"/>
      <point x="46" y="569"/>
      <point x="46" y="474" type="curve"/>
      <point x="46" y="229" type="line"/>
      <point x="46" y="138"/>
      <point x="46" y="74"/>
    </contour>
    <contour>
      <point x="260" y="0" type="line"/>
      <point x="550" y="0" type="line"/>
      <point x="550" y="212" type="line"/>
      <point x="488" y="212"/>
      <point x="435" y="212"/>
      <point x="344" y="212" type="curve"/>
      <point x="260" y="212" type="line"/>
    </contour>
  </outline>
</glyph>
<glyph name="M" format="2">
  <advance width="970"/>
  <unicode hex="004D"/>
  <anchor x="485" y="0" name="bottom"/>
  <anchor x="485" y="713" name="top"/>
  <outline>
    <contour>
      <point x="32" y="0" type="curve"/>
      <point x="258" y="0" type="line"/>
      <point x="266" y="71"/>
      <point x="274" y="135"/>
      <point x="281" y="191" type="curve"/>
      <point x="296" y="312" type="line"/>
      <point x="312" y="312" type="line"/>
      <point x="354" y="183" type="line"/>
      <point x="374" y="121"/>
      <point x="395" y="58"/>
      <point x="414" y="0" type="curve"/>
      <point x="575" y="0" type="line"/>
      <point x="589" y="57"/>
      <point x="604" y="119"/>
      <point x="619" y="183" type="curve"/>
      <point x="650" y="312" type="line"/>
      <point x="666" y="312" type="line"/>
      <point x="681" y="191" type="line"/>
      <point x="688" y="135"/>
      <point x="696" y="71"/>
      <point x="705" y="0" type="curve"/>
      <point x="938" y="0" type="line"/>
      <point x="929" y="73"/>
      <point x="920" y="142"/>
      <point x="908" y="229" type="curve"/>
      <point x="876" y="472" type="line"/>
      <point x="865" y="559"/>
      <point x="855" y="635"/>
      <point x="844" y="713" type="curve"/>
      <point x="600" y="713" type="line"/>
      <point x="580" y="649"/>
      <point x="564" y="603"/>
      <point x="547" y="550" type="curve"/>
      <point x="497" y="397" type="line"/>
      <point x="482" y="397" type="line"/>
      <point x="427" y="550" type="line"/>
      <point x="408" y="603"/>
      <point x="391" y="652"/>
      <point x="369" y="713" type="curve"/>
      <point x="121" y="713" type="line"/>
      <point x="111" y="634"/>
      <point x="102" y="558"/>
      <point x="91" y="472" type="curve"/>
      <point x="61" y="229" type="line"/>
      <point x="50" y="143"/>
      <point x="41" y="70"/>
    </contour>
  </outline>
</glyph>
<glyph name="N" format="2">
  <advance width="746"/>
  <unicode hex="004E"/>
  <anchor x="374" y="0" name="bottom"/>
  <anchor x="374" y="713" name="top"/>
  <outline>
    <contour>
      <point x="46" y="0" type="curve"/>
      <point x="275" y="0" type="line"/>
      <point x="275" y="74"/>
      <point x="275" y="138"/>
      <point x="275" y="229" type="curve"/>
      <point x="275" y="304" type="line"/>
      <point x="291" y="304" type="line"/>
      <point x="368" y="188" type="line"/>
      <point x="415" y="117"/>
      <point x="453" y="59"/>
      <point x="491" y="0" type="curve"/>
      <point x="700" y="0" type="line"/>
      <point x="700" y="74"/>
      <point x="700" y="138"/>
      <point x="700" y="229" type="curve"/>
      <point x="700" y="474" type="line"/>
      <point x="700" y="569"/>
      <point x="700" y="636"/>
      <point x="700" y="713" type="curve"/>
      <point x="471" y="713" type="line"/>
      <point x="471" y="636"/>
      <point x="471" y="569"/>
      <point x="471" y="474" type="curve"/>
      <point x="471" y="409" type="line"/>
      <point x="454" y="409" type="line"/>
      <point x="380" y="524" type="line"/>
      <point x="340" y="585"/>
      <point x="304" y="641"/>
      <point x="257" y="713" type="curve"/>
      <point x="46" y="713" type="line"/>
      <point x="46" y="636"/>
      <point x="46" y="569"/>
      <point x="46" y="474" type="curve"/>
      <point x="46" y="229" type="line"/>
      <point x="46" y="138"/>
      <point x="46" y="74"/>
    </contour>
  </outline>
</glyph>
<glyph name="O" format="2">
  <advance width="811"/>
  <unicode hex="004F"/>
  <anchor x="406" y="0" name="bottom"/>
  <anchor x="406" y="357" name="center"/>
  <anchor x="531" y="0" name="ogonek"/>
  <anchor x="406" y="713" name="top"/>
  <anchor x="24" y="713" name="topleft"/>
  <anchor x="696" y="713" name="topright"/>
  <outline>
    <contour>
      <point x="409" y="-16" type="curve" smooth="yes"/>
      <point x="661" y="-16"/>
      <point x="787" y="142"/>
      <point x="787" y="356" type="curve" smooth="yes"/>
      <point x="787" y="562"/>
      <point x="668" y="729"/>
      <point x="403" y="729" type="curve" smooth="yes"/>
      <point x="141" y="729"/>
      <point x="24" y="563"/>
      <point x="24" y="355" type="curve" smooth="yes"/>
      <point x="24" y="161"/>
      <point x="134" y="-16"/>
    </contour>
    <contour>
      <point x="406" y="182" type="curve"/>
      <point x="327" y="182"/>
      <point x="280" y="260"/>
      <point x="280" y="356" type="curve" smooth="yes"/>
      <point x="280" y="455"/>
      <point x="330" y="531"/>
      <point x="406" y="531" type="curve"/>
      <point x="479" y="531"/>
      <point x="531" y="455"/>
      <point x="531" y="356" type="curve" smooth="yes"/>
      <point x="531" y="260"/>
      <point x="484" y="182"/>
    </contour>
  </outline>
</glyph>
<glyph name="P" format="2">
  <advance width="673"/>
  <unicode hex="0050"/>
  <outline>
    <contour>
      <point x="405" y="213" type="curve"/>
      <point x="577" y="213"/>
      <point x="653" y="313"/>
      <point x="653" y="466" type="curve" smooth="yes"/>
      <point x="653" y="660"/>
      <point x="553" y="713"/>
      <point x="368" y="713" type="curve"/>
      <point x="222" y="713"/>
      <point x="107" y="713"/>
      <point x="46" y="713" type="curve"/>
      <point x="272" y="528" type="line"/>
      <point x="351" y="528" type="line" smooth="yes"/>
      <point x="384" y="528"/>
      <point x="404" y="504"/>
      <point x="404" y="457" type="curve" smooth="yes"/>
      <point x="404" y="409"/>
      <point x="387" y="385"/>
      <point x="345" y="385" type="curve" smooth="yes"/>
      <point x="225" y="385" type="line"/>
      <point x="258" y="213" type="line"/>
      <point x="295" y="213"/>
      <point x="358" y="213"/>
    </contour>
    <contour>
      <point x="46" y="0" type="curve"/>
      <point x="287" y="0" type="line"/>
      <point x="287" y="74"/>
      <point x="287" y="138"/>
      <point x="287" y="229" type="curve"/>
      <point x="287" y="434" type="line"/>
      <point x="287" y="529"/>
      <point x="287" y="596"/>
      <point x="287" y="673" type="curve"/>
      <point x="46" y="713" type="line"/>
      <point x="46" y="636"/>
      <point x="46" y="569"/>
      <point x="46" y="474" type="curve"/>
      <point x="46" y="229" type="line"/>
      <point x="46" y="138"/>
      <point x="46" y="74"/>
    </contour>
  </outline>
</glyph>
<glyph name="R" format="2">
  <advance width="715"/>
  <unicode hex="0052"/>
  <anchor x="356" y="0" name="bottom"/>
  <anchor x="336" y="713" name="top"/>
  <outline>
    <contour>
      <point x="433" y="0" type="curve"/>
      <point x="708" y="0" type="line"/>
      <point x="678" y="55"/>
      <point x="629" y="144"/>
      <point x="592" y="211" type="curve"/>
      <point x="512" y="357" type="line"/>
      <point x="411" y="282" type="line"/>
      <point x="576" y="282"/>
      <point x="653" y="362"/>
      <point x="653" y="493" type="curve" smooth="yes"/>
      <point x="653" y="666"/>
      <point x="542" y="713"/>
      <point x="355" y="713" type="curve"/>
      <point x="249" y="713"/>
      <point x="118" y="713"/>
      <point x="46" y="713" type="curve"/>
      <point x="210" y="529" type="line"/>
      <point x="348" y="529" type="line" smooth="yes"/>
      <point x="381" y="529"/>
      <point x="400" y="505"/>
      <point x="400" y="464" type="curve" smooth="yes"/>
      <point x="400" y="409"/>
      <point x="373" y="398"/>
      <point x="343" y="398" type="curve" smooth="yes"/>
      <point x="242" y="398" type="line"/>
      <point x="242" y="251" type="line"/>
      <point x="410" y="251" type="line"/>
      <point x="266" y="341" type="line"/>
      <point x="364" y="141" type="line"/>
      <point x="386" y="96"/>
      <point x="408" y="51"/>
    </contour>
    <contour>
      <point x="46" y="0" type="curve"/>
      <point x="287" y="0" type="line"/>
      <point x="287" y="74"/>
      <point x="287" y="138"/>
      <point x="287" y="229" type="curve"/>
      <point x="287" y="434" type="line"/>
      <point x="287" y="529"/>
      <point x="287" y="596"/>
      <point x="287" y="673" type="curve"/>
      <point x="46" y="713" type="line"/>
      <point x="46" y="636"/>
      <point x="46" y="569"/>
      <point x="46" y="474" type="curve"/>
      <point x="46" y="229" type="line"/>
      <point x="46" y="138"/>
      <point x="46" y="74"/>
    </contour>
  </outline>
</glyph>
<glyph name="T" format="2">
  <advance width="651"/>
  <unicode hex="0054"/>
  <anchor x="326" y="0" name="bottom"/>
  <anchor x="326" y="299" name="center"/>
  <anchor x="326" y="713" name="top"/>
  <outline>
    <contour>
      <point x="203" y="0" type="curve"/>
      <point x="448" y="0" type="line"/>
      <point x="448" y="74"/>
      <point x="448" y="138"/>
      <point x="448" y="229" type="curve"/>
      <point x="448" y="434" type="line"/>
      <point x="448" y="529"/>
      <point x="448" y="596"/>
      <point x="448" y="673" type="curve"/>
      <point x="448" y="713" type="line"/>
      <point x="203" y="713" type="line"/>
      <point x="203" y="673" type="line"/>
      <point x="203" y="596"/>
      <point x="203" y="529"/>
      <point x="203" y="434" type="curve"/>
      <point x="203" y="229" type="line"/>
      <point x="203" y="138"/>
      <point x="203" y="74"/>
    </contour>
    <contour>
      <point x="20" y="501" type="line"/>
      <point x="68" y="501"/>
      <point x="119" y="501"/>
      <point x="189" y="501" type="curve"/>
      <point x="244" y="501" type="line"/>
      <point x="244" y="713" type="line"/>
      <point x="20" y="713" type="line"/>
    </contour>
    <contour>
      <point x="407" y="501" type="line"/>
      <point x="462" y="501" type="line"/>
      <point x="532" y="501"/>
      <point x="583" y="501"/>
      <point x="631" y="501" type="curve"/>
      <point x="631" y="713" type="line"/>
      <point x="407" y="713" type="line"/>
    </contour>
  </outline>
</glyph>
<glyph name="W" format="2">
  <advance width="1076"/>
  <unicode hex="0057"/>
  <anchor x="532" y="0" name="bottom"/>
  <anchor x="532" y="713" name="top"/>
  <outline>
    <contour>
      <point x="186" y="0" type="curve"/>
      <point x="463" y="0" type="line"/>
      <point x="472" y="58"/>
      <point x="482" y="129"/>
      <point x="491" y="188" type="curve"/>
      <point x="517" y="358" type="line"/>
      <point x="533" y="358" type="line"/>
      <point x="561" y="189" type="line"/>
      <point x="571" y="129"/>
      <point x="582" y="60"/>
      <point x="592" y="0" type="curve"/>
      <point x="884" y="0" type="line"/>
      <point x="901" y="69"/>
      <point x="922" y="154"/>
      <point x="940" y="225" type="curve"/>
      <point x="996" y="450" type="line"/>
      <point x="1015" y="527"/>
      <point x="1040" y="628"/>
      <point x="1061" y="713" type="curve"/>
      <point x="782" y="713" type="line"/>
      <point x="775" y="643"/>
      <point x="766" y="561"/>
      <point x="759" y="492" type="curve"/>
      <point x="738" y="292" type="line"/>
      <point x="722" y="292" type="line"/>
      <point x="694" y="491" type="line"/>
      <point x="684" y="562"/>
      <point x="673" y="642"/>
      <point x="663" y="713" type="curve"/>
      <point x="410" y="713" type="line"/>
      <point x="401" y="644"/>
      <point x="390" y="560"/>
      <point x="381" y="492" type="curve"/>
      <point x="355" y="292" type="line"/>
      <point x="339" y="292" type="line"/>
      <point x="318" y="490" type="line"/>
      <point x="310" y="561"/>
      <point x="302" y="642"/>
      <point x="294" y="713" type="curve"/>
      <point x="15" y="713" type="line"/>
      <point x="35" y="629"/>
      <point x="59" y="529"/>
      <point x="78" y="450" type="curve"/>
      <point x="132" y="225" type="line"/>
      <point x="149" y="156"/>
      <point x="169" y="70"/>
    </contour>
  </outline>
</glyph>
<glyph name="X" format="2">
  <advance width="744"/>
  <unicode hex="0058"/>
  <outline>
    <contour>
      <point x="17" y="0" type="curve"/>
      <point x="287" y="0" type="line"/>
      <point x="301" y="43"/>
      <point x="313" y="80"/>
      <point x="325" y="118" type="curve"/>
      <point x="354" y="207" type="line"/>
      <point x="370" y="207" type="line"/>
      <point x="401" y="118" type="line"/>
      <point x="414" y="82"/>
      <point x="427" y="43"/>
      <point x="442" y="0" type="curve"/>
      <point x="730" y="0" type="line"/>
      <point x="691" y="75"/>
      <point x="656" y="143"/>
      <point x="616" y="220" type="curve"/>
      <point x="535" y="377" type="line"/>
      <point x="535" y="317" type="line"/>
      <point x="615" y="494" type="line"/>
      <point x="643" y="556"/>
      <point x="677" y="631"/>
      <point x="714" y="713" type="curve"/>
      <point x="447" y="713" type="line"/>
      <point x="432" y="666"/>
      <point x="418" y="621"/>
      <point x="405" y="580" type="curve"/>
      <point x="380" y="502" type="line"/>
      <point x="364" y="502" type="line"/>
      <point x="337" y="580" type="line"/>
      <point x="323" y="621"/>
      <point x="307" y="666"/>
      <point x="291" y="713" type="curve"/>
      <point x="14" y="713" type="line"/>
      <point x="54" y="631"/>
      <point x="87" y="562"/>
      <point x="120" y="494" type="curve"/>
      <point x="192" y="345" type="line"/>
      <point x="192" y="397" type="line"/>
      <point x="111" y="214" type="line"/>
      <point x="77" y="137"/>
      <point x="47" y="68"/>
    </contour>
  </outline>
</glyph>
<glyph name="Y" format="2">
  <advance width="713"/>
  <unicode hex="0059"/>
  <anchor x="359" y="0" name="bottom"/>
  <anchor x="359" y="713" name="top"/>
  <anchor x="18" y="713" name="topleft"/>
  <outline>
    <contour>
      <point x="241" y="222" type="line"/>
      <point x="476" y="222" type="line"/>
      <point x="612" y="520" type="line" smooth="yes"/>
      <point x="640" y="582"/>
      <point x="671" y="648"/>
      <point x="700" y="713" type="curve"/>
      <point x="431" y="713" type="line"/>
      <point x="414" y="646"/>
      <point x="405" y="612"/>
      <point x="390" y="557" type="curve" smooth="yes"/>
      <point x="368" y="474" type="line"/>
      <point x="350" y="474" type="line"/>
      <point x="329" y="558" type="line" smooth="yes"/>
      <point x="316" y="612"/>
      <point x="308" y="645"/>
      <point x="291" y="713" type="curve"/>
      <point x="13" y="713" type="line"/>
      <point x="49" y="638"/>
      <point x="73" y="584"/>
      <point x="103" y="520" type="curve" smooth="yes"/>
    </contour>
    <contour>
      <point x="236" y="0" type="curve"/>
      <point x="482" y="0" type="line"/>
      <point x="482" y="74"/>
      <point x="482" y="138"/>
      <point x="482" y="229" type="curve"/>
      <point x="482" y="429" type="line"/>
      <point x="236" y="429" type="line"/>
      <point x="236" y="229" type="line"/>
      <point x="236" y="138"/>
      <point x="236" y="74"/>
    </contour>
  </outline>
</glyph>
<glyph name="bracketleft" format="2">
  <advance width="445"/>
  <unicode hex="005B"/>
  <outline>
    <contour>
      <point x="55" y="-130" type="curve"/>
      <point x="255" y="-130" type="line"/>
      <point x="255" y="-90" type="line"/>
      <point x="255" y="-16"/>
      <point x="255" y="48"/>
      <point x="255" y="139" type="curve"/>
      <point x="255" y="504" type="line"/>
      <point x="255" y="599"/>
      <point x="255" y="666"/>
      <point x="255" y="743" type="curve"/>
      <point x="255" y="783" type="line"/>
      <point x="55" y="783" type="line"/>
      <point x="55" y="706"/>
      <point x="55" y="639"/>
      <point x="55" y="544" type="curve"/>
      <point x="55" y="99" type="line"/>
      <point x="55" y="8"/>
      <point x="55" y="-56"/>
    </contour>
    <contour>
      <point x="229" y="-130" type="line"/>
      <point x="415" y="-130" type="line"/>
      <point x="415" y="43" type="line"/>
      <point x="373" y="43"/>
      <point x="330" y="43"/>
      <point x="280" y="43" type="curve"/>
      <point x="229" y="43" type="line"/>
    </contour>
    <contour>
      <point x="213" y="610" type="line"/>
      <point x="269" y="610" type="line"/>
      <point x="329" y="610"/>
      <point x="371" y="610"/>
      <point x="410" y="610" type="curve"/>
      <point x="410" y="783" type="line"/>
      <point x="213" y="783" type="line"/>
    </contour>
  </outline>
</glyph>
<glyph name="underscore" format="2">
  <advance width="460"/>
  <unicode hex="005F"/>
  <outline>
    <contour>
      <point x="-10" y="-208" type="line"/>
      <point x="65" y="-208"/>
      <point x="141" y="-208"/>
      <point x="198" y="-208" type="curve"/>
      <point x="262" y="-208" type="line"/>
      <point x="319" y="-208"/>
      <point x="395" y="-208"/>
      <point x="470" y="-208" type="curve"/>
      <point x="470" y="-30" type="line"/>
      <point x="395" y="-30"/>
      <point x="319" y="-30"/>
      <point x="262" y="-30" type="curve"/>
      <point x="198" y="-30" type="line"/>
      <point x="141" y="-30"/>
      <point x="65" y="-30"/>
      <point x="-10" y="-30" type="curve"/>
    </contour>
  </outline>
</glyph>
<glyph name="b" format="2">
  <advance width="593"/>
  <unicode hex="0062"/>
  <outline>
    <contour>
      <point x="385" y="-16" type="curve" smooth="yes"/>
      <point x="516" y="-16"/>
      <point x="573" y="112"/>
      <point x="573" y="251" type="curve" smooth="yes"/>
      <point x="573" y="400"/>
      <point x="512" y="518"/>
      <point x="384" y="518" type="curve" smooth="yes"/>
      <point x="334" y="518"/>
      <point x="298" y="500"/>
      <point x="273" y="456" type="curve"/>
      <point x="257" y="456" type="line"/>
      <point x="257" y="493" type="line"/>
      <point x="257" y="589"/>
      <point x="257" y="673"/>
      <point x="257" y="750" type="curve"/>
      <point x="35" y="734" type="line"/>
      <point x="35" y="651"/>
      <point x="35" y="572"/>
      <point x="35" y="493" type="curve"/>
      <point x="35" y="213" type="line"/>
      <point x="35" y="129"/>
      <point x="35" y="69"/>
      <point x="35" y="0" type="curve"/>
      <point x="207" y="0" type="line"/>
      <point x="233" y="57" type="line"/>
      <point x="246" y="57" type="line"/>
      <point x="278" y="13"/>
      <point x="321" y="-16"/>
    </contour>
    <contour>
      <point x="294" y="169" type="curve"/>
      <point x="275" y="169"/>
      <point x="262" y="182"/>
      <point x="257" y="197" type="curve"/>
      <point x="257" y="312" type="line"/>
      <point x="265" y="322"/>
      <point x="279" y="330"/>
      <point x="294" y="330" type="curve"/>
      <point x="328" y="330"/>
      <point x="346" y="292"/>
      <point x="346" y="249" type="curve" smooth="yes"/>
      <point x="346" y="209"/>
      <point x="327" y="169"/>
    </contour>
  </outline>
</glyph>
<glyph name="d" format="2">
  <advance width="593"/>
  <unicode hex="0064"/>
  <anchor x="322" y="0" name="bottom"/>
  <anchor x="296" y="251" name="center"/>
  <anchor x="322" y="733" name="top"/>
  <anchor x="577" y="502" name="topright"/>
  <outline>
    <contour>
      <point x="208" y="-16" type="curve" smooth="yes"/>
      <point x="268" y="-16"/>
      <point x="311" y="11"/>
      <point x="344" y="63" type="curve"/>
      <point x="357" y="63" type="line"/>
      <point x="372" y="0" type="line"/>
      <point x="558" y="0" type="line"/>
      <point x="558" y="69"/>
      <point x="558" y="129"/>
      <point x="558" y="213" type="curve"/>
      <point x="558" y="493" type="line"/>
      <point x="558" y="589"/>
      <point x="558" y="673"/>
      <point x="558" y="750" type="curve"/>
      <point x="336" y="734" type="line"/>
      <point x="336" y="649"/>
      <point x="336" y="572"/>
      <point x="336" y="493" type="curve"/>
      <point x="336" y="456" type="line"/>
      <point x="320" y="456" type="line"/>
      <point x="295" y="500"/>
      <point x="259" y="518"/>
      <point x="209" y="518" type="curve" smooth="yes"/>
      <point x="81" y="518"/>
      <point x="20" y="400"/>
      <point x="20" y="251" type="curve" smooth="yes"/>
      <point x="20" y="112"/>
      <point x="77" y="-16"/>
    </contour>
    <contour>
      <point x="299" y="169" type="curve"/>
      <point x="266" y="169"/>
      <point x="247" y="209"/>
      <point x="247" y="249" type="curve" smooth="yes"/>
      <point x="247" y="292"/>
      <point x="265" y="330"/>
      <point x="299" y="330" type="curve"/>
      <point x="314" y="330"/>
      <point x="328" y="322"/>
      <point x="336" y="312" type="curve"/>
      <point x="336" y="197" type="line"/>
      <point x="331" y="182"/>
      <point x="318" y="169"/>
    </contour>
  </outline>
</glyph>
<glyph name="g" format="2">
  <advance width="558"/>
  <unicode hex="0067"/>
  <anchor x="280" y="-192" name="bottom"/>
  <anchor x="280" y="502" name="top"/>
  <outline>
    <contour>
      <point x="232" y="-206" type="curve" smooth="yes"/>
      <point x="377" y="-206"/>
      <point x="544" y="-158"/>
      <point x="544" y="2" type="curve" smooth="yes"/>
      <point x="544" y="120"/>
      <point x="452" y="146"/>
      <point x="337" y="146" type="curve" smooth="yes"/>
      <point x="319" y="146" type="line" smooth="yes"/>
      <point x="280" y="146"/>
      <point x="262" y="149"/>
      <point x="262" y="164" type="curve" smooth="yes"/>
      <point x="262" y="182"/>
      <point x="280" y="187"/>
      <point x="321" y="195" type="curve" smooth="yes"/>
      <point x="402" y="211"/>
      <point x="482" y="252"/>
      <point x="482" y="340" type="curve" smooth="yes"/>
      <point x="482" y="388"/>
      <point x="467" y="426"/>
      <point x="441" y="454" type="curve"/>
      <point x="385" y="374" type="line"/>
      <point x="438" y="374"/>
      <point x="486" y="374"/>
      <point x="544" y="374" type="curve"/>
      <point x="544" y="506" type="line"/>
      <point x="425" y="506" type="line" smooth="yes"/>
      <point x="344" y="506"/>
      <point x="316" y="518"/>
      <point x="251" y="518" type="curve" smooth="yes"/>
      <point x="78" y="518"/>
      <point x="16" y="437"/>
      <point x="16" y="347" type="curve" smooth="yes"/>
      <point x="16" y="263"/>
      <point x="67" y="216"/>
      <point x="128" y="193" type="curve"/>
      <point x="128" y="180" type="line"/>
      <point x="81" y="164"/>
      <point x="61" y="128"/>
      <point x="61" y="95" type="curve" smooth="yes"/>
      <point x="61" y="53"/>
      <point x="94" y="24"/>
      <point x="127" y="18" type="curve"/>
      <point x="127" y="5" type="line"/>
      <point x="87" y="-5"/>
      <point x="29" y="-29"/>
      <point x="29" y="-93" type="curve" smooth="yes"/>
      <point x="29" y="-155"/>
      <point x="78" y="-206"/>
    </contour>
    <contour>
      <point x="264" y="-74" type="curve"/>
      <point x="224" y="-74"/>
      <point x="204" y="-64"/>
      <point x="204" y="-48" type="curve" smooth="yes"/>
      <point x="204" y="-25"/>
      <point x="232" y="-18"/>
      <point x="257" y="-14" type="curve"/>
      <point x="269" y="-14" type="line" smooth="yes"/>
      <point x="328" y="-14"/>
      <point x="338" y="-26"/>
      <point x="338" y="-40" type="curve" smooth="yes"/>
      <point x="338" y="-55"/>
      <point x="315" y="-74"/>
    </contour>
    <contour>
      <point x="251" y="280" type="curve"/>
      <point x="232" y="285"/>
      <point x="217" y="301"/>
      <point x="217" y="316" type="curve" smooth="yes"/>
      <point x="217" y="332"/>
      <point x="232" y="346"/>
      <point x="257" y="346" type="curve"/>
      <point x="286" y="346"/>
      <point x="302" y="332"/>
      <point x="302" y="315" type="curve" smooth="yes"/>
      <point x="302" y="295"/>
      <point x="278" y="280"/>
    </contour>
  </outline>
</glyph>
<glyph name="h" format="2">
  <advance width="584"/>
  <unicode hex="0068"/>
  <guideline x="147" y="743" angle="4.4708"/>
  <anchor x="295" y="0" name="bottom"/>
  <anchor x="295" y="409" name="center"/>
  <anchor x="273" y="733" name="top"/>
  <outline>
    <contour>
      <point x="35" y="0" type="curve"/>
      <point x="257" y="0" type="line"/>
      <point x="257" y="69"/>
      <point x="257" y="129"/>
      <point x="257" y="200" type="curve"/>
      <point x="257" y="291" type="line"/>
      <point x="268" y="306"/>
      <point x="283" y="318"/>
      <point x="300" y="318" type="curve" smooth="yes"/>
      <point x="324" y="318"/>
      <point x="332" y="300"/>
      <point x="332" y="265" type="curve"/>
      <point x="332" y="200" type="line"/>
      <point x="332" y="129"/>
      <point x="332" y="69"/>
      <point x="332" y="0" type="curve"/>
      <point x="554" y="0" type="line"/>
      <point x="554" y="69"/>
      <point x="554" y="129"/>
      <point x="554" y="213" type="curve"/>
      <point x="554" y="255"/>
      <point x="554" y="297"/>
      <point x="554" y="342" type="curve" smooth="yes"/>
      <point x="554" y="461"/>
      <point x="496" y="518"/>
      <point x="402" y="518" type="curve" smooth="yes"/>
      <point x="344" y="518"/>
      <point x="304" y="490"/>
      <point x="274" y="447" type="curve"/>
      <point x="257" y="447" type="line"/>
      <point x="257" y="493" type="line"/>
      <point x="257" y="589"/>
      <point x="257" y="673"/>
      <point x="257" y="750" type="curve"/>
      <point x="35" y="734" type="line"/>
      <point x="35" y="651"/>
      <point x="35" y="572"/>
      <point x="35" y="493" type="curve"/>
      <point x="35" y="213" type="line"/>
      <point x="35" y="129"/>
      <point x="35" y="69"/>
    </contour>
  </outline>
</glyph>
<glyph name="l" format="2">
  <advance width="292"/>
  <unicode hex="006C"/>
  <anchor x="146" y="0" name="bottom"/>
  <anchor x="151" y="409" name="center"/>
  <anchor x="146" y="733" name="top"/>
  <anchor x="276" y="502" name="topright"/>
  <outline>
    <contour>
      <point x="35" y="0" type="curve"/>
      <point x="257" y="0" type="line"/>
      <point x="257" y="69"/>
      <point x="257" y="129"/>
      <point x="257" y="213" type="curve"/>
      <point x="257" y="493" type="line"/>
      <point x="257" y="589"/>
      <point x="257" y="673"/>
      <point x="257" y="750" type="curve"/>
      <point x="35" y="734" type="line"/>
      <point x="35" y="651"/>
      <point x="35" y="572"/>
      <point x="35" y="493" type="curve"/>
      <point x="35" y="213" type="line"/>
      <point x="35" y="129"/>
      <point x="35" y="69"/>
    </contour>
  </outline>
</glyph>
<glyph name="o" format="2">
  <advance width="598"/>
  <unicode hex="006F"/>
  <anchor x="299" y="0" name="bottom"/>
  <anchor x="299" y="251" name="center"/>
  <anchor x="405" y="0" name="ogonek"/>
  <anchor x="299" y="502" name="top"/>
  <anchor x="518" y="502" name="topright"/>
  <outline>
    <contour>
      <point x="302" y="-16" type="curve" smooth="yes"/>
      <point x="485" y="-16"/>
      <point x="580" y="97"/>
      <point x="580" y="251" type="curve" smooth="yes"/>
      <point x="580" y="400"/>
      <point x="493" y="518"/>
      <point x="297" y="518" type="curve" smooth="yes"/>
      <point x="106" y="518"/>
      <point x="18" y="401"/>
      <point x="18" y="251" type="curve" smooth="yes"/>
      <point x="18" y="111"/>
      <point x="100" y="-16"/>
    </contour>
    <contour>
      <point x="301" y="161" type="curve"/>
      <point x="265" y="161"/>
      <point x="244" y="203"/>
      <point x="244" y="251" type="curve" smooth="yes"/>
      <point x="244" y="303"/>
      <point x="264" y="341"/>
      <point x="300" y="341" type="curve"/>
      <point x="330" y="341"/>
      <point x="354" y="312"/>
      <point x="354" y="251" type="curve" smooth="yes"/>
      <point x="354" y="203"/>
      <point x="337" y="161"/>
    </contour>
  </outline>
</glyph>
<glyph name="p" format="2">
  <advance width="593"/>
  <unicode hex="0070"/>
  <outline>
    <contour>
      <point x="35" y="-198" type="curve"/>
      <point x="257" y="-192" type="line"/>
      <point x="257" y="-123"/>
      <point x="257" y="-63"/>
      <point x="257" y="8" type="curve"/>
      <point x="257" y="45" type="line"/>
      <point x="268" y="45" type="line"/>
      <point x="295" y="8"/>
      <point x="331" y="-16"/>
      <point x="385" y="-16" type="curve" smooth="yes"/>
      <point x="516" y="-16"/>
      <point x="573" y="112"/>
      <point x="573" y="251" type="curve" smooth="yes"/>
      <point x="573" y="400"/>
      <point x="512" y="518"/>
      <point x="384" y="518" type="curve" smooth="yes"/>
      <point x="325" y="518"/>
      <point x="283" y="495"/>
      <point x="253" y="440" type="curve"/>
      <point x="237" y="440" type="line"/>
      <point x="230" y="512" type="line"/>
      <point x="35" y="502" type="line"/>
      <point x="35" y="419"/>
      <point x="35" y="342"/>
      <point x="35" y="263" type="curve"/>
      <point x="35" y="21" type="line"/>
      <point x="35" y="-63"/>
      <point x="35" y="-129"/>
    </contour>
    <contour>
      <point x="294" y="169" type="curve"/>
      <point x="275" y="169"/>
      <point x="262" y="182"/>
      <point x="257" y="197" type="curve"/>
      <point x="257" y="312" type="line"/>
      <point x="265" y="322"/>
      <point x="279" y="330"/>
      <point x="294" y="330" type="curve"/>
      <point x="328" y="330"/>
      <point x="346" y="292"/>
      <point x="346" y="249" type="curve" smooth="yes"/>
      <point x="346" y="209"/>
      <point x="327" y="169"/>
    </contour>
  </outline>
</glyph>
<glyph name="q" format="2">
  <advance width="588"/>
  <unicode hex="0071"/>
  <outline>
    <contour>
      <point x="336" y="-198" type="curve"/>
      <point x="558" y="-192" type="line"/>
      <point x="558" y="-123"/>
      <point x="558" y="-63"/>
      <point x="558" y="21" type="curve"/>
      <point x="558" y="263" type="line"/>
      <point x="558" y="345"/>
      <point x="558" y="426"/>
      <point x="558" y="512" type="curve"/>
      <point x="363" y="502" type="line"/>
      <point x="356" y="440" type="line"/>
      <point x="340" y="440" type="line"/>
      <point x="310" y="495"/>
      <point x="268" y="518"/>
      <point x="209" y="518" type="curve" smooth="yes"/>
      <point x="81" y="518"/>
      <point x="20" y="400"/>
      <point x="20" y="251" type="curve" smooth="yes"/>
      <point x="20" y="112"/>
      <point x="77" y="-16"/>
      <point x="208" y="-16" type="curve" smooth="yes"/>
      <point x="262" y="-16"/>
      <point x="298" y="8"/>
      <point x="325" y="45" type="curve"/>
      <point x="336" y="45" type="line"/>
      <point x="336" y="8" type="line"/>
      <point x="336" y="-63"/>
      <point x="336" y="-129"/>
    </contour>
    <contour>
      <point x="299" y="169" type="curve"/>
      <point x="266" y="169"/>
      <point x="247" y="209"/>
      <point x="247" y="249" type="curve" smooth="yes"/>
      <point x="247" y="292"/>
      <point x="265" y="330"/>
      <point x="299" y="330" type="curve"/>
      <point x="314" y="330"/>
      <point x="328" y="322"/>
      <point x="336" y="312" type="curve"/>
      <point x="336" y="197" type="line"/>
      <point x="331" y="182"/>
      <point x="318" y="169"/>
    </contour>
  </outline>
</glyph>
<glyph name="s" format="2">
  <advance width="478"/>
  <unicode hex="0073"/>
  <anchor x="243" y="0" name="bottom"/>
  <anchor x="243" y="502" name="top"/>
  <outline>
    <contour>
      <point x="226" y="-16" type="curve" smooth="yes"/>
      <point x="395" y="-16"/>
      <point x="465" y="51"/>
      <point x="465" y="152" type="curve" smooth="yes"/>
      <point x="465" y="224"/>
      <point x="429" y="260"/>
      <point x="310" y="290" type="curve" smooth="yes"/>
      <point x="264" y="301"/>
      <point x="254" y="312"/>
      <point x="254" y="329" type="curve" smooth="yes"/>
      <point x="254" y="342"/>
      <point x="265" y="350"/>
      <point x="284" y="350" type="curve"/>
      <point x="315" y="350"/>
      <point x="377" y="338"/>
      <point x="423" y="306" type="curve"/>
      <point x="436" y="484" type="line"/>
      <point x="393" y="499"/>
      <point x="318" y="517"/>
      <point x="229" y="517" type="curve" smooth="yes"/>
      <point x="98" y="517"/>
      <point x="26" y="454"/>
      <point x="26" y="350" type="curve" smooth="yes"/>
      <point x="26" y="275"/>
      <point x="61" y="228"/>
      <point x="162" y="203" type="curve" smooth="yes"/>
      <point x="221" y="189"/>
      <point x="240" y="184"/>
      <point x="240" y="165" type="curve" smooth="yes"/>
      <point x="240" y="149"/>
      <point x="226" y="141"/>
      <point x="200" y="141" type="curve"/>
      <point x="152" y="141"/>
      <point x="84" y="161"/>
      <point x="41" y="191" type="curve"/>
      <point x="29" y="16" type="line"/>
      <point x="71" y="-2"/>
      <point x="135" y="-16"/>
    </contour>
  </outline>
</glyph>
<glyph name="u" format="2">
  <advance width="584"/>
  <unicode hex="0075"/>
  <anchor x="290" y="0" name="bottom"/>
  <anchor x="549" y="0" name="ogonek"/>
  <anchor x="290" y="502" name="top"/>
  <anchor x="575" y="502" name="topright"/>
  <outline>
    <contour>
      <point x="182" y="-16" type="curve" smooth="yes"/>
      <point x="253" y="-16"/>
      <point x="302" y="18"/>
      <point x="338" y="71" type="curve"/>
      <point x="355" y="71" type="line"/>
      <point x="365" y="0" type="line"/>
      <point x="549" y="0" type="line"/>
      <point x="549" y="69"/>
      <point x="549" y="129"/>
      <point x="549" y="213" type="curve"/>
      <point x="549" y="273" type="line"/>
      <point x="549" y="373"/>
      <point x="549" y="433"/>
      <point x="549" y="502" type="curve"/>
      <point x="327" y="502" type="line"/>
      <point x="327" y="433"/>
      <point x="327" y="373"/>
      <point x="327" y="303" type="curve"/>
      <point x="327" y="206" type="line"/>
      <point x="316" y="191"/>
      <point x="301" y="179"/>
      <point x="284" y="179" type="curve" smooth="yes"/>
      <point x="260" y="179"/>
      <point x="252" y="197"/>
      <point x="252" y="232" type="curve"/>
      <point x="252" y="303" type="line"/>
      <point x="252" y="373"/>
      <point x="252" y="439"/>
      <point x="252" y="508" type="curve"/>
      <point x="30" y="502" type="line"/>
      <point x="30" y="433"/>
      <point x="30" y="383"/>
      <point x="30" y="273" type="curve"/>
      <point x="30" y="234"/>
      <point x="30" y="205"/>
      <point x="30" y="160" type="curve" smooth="yes"/>
      <point x="30" y="41"/>
      <point x="88" y="-16"/>
    </contour>
  </outline>
</glyph>
<glyph name="v" format="2">
  <advance width="576"/>
  <unicode hex="0076"/>
  <outline>
    <contour>
      <point x="172" y="0" type="curve"/>
      <point x="405" y="0" type="line"/>
      <point x="426" y="63"/>
      <point x="447" y="126"/>
      <point x="468" y="189" type="curve"/>
      <point x="498" y="279" type="line"/>
      <point x="523" y="353"/>
      <point x="548" y="428"/>
      <point x="573" y="502" type="curve"/>
      <point x="337" y="502" type="line"/>
      <point x="330" y="453"/>
      <point x="321" y="398"/>
      <point x="313" y="342" type="curve"/>
      <point x="298" y="238" type="line"/>
      <point x="282" y="238" type="line"/>
      <point x="267" y="342" type="line"/>
      <point x="259" y="398"/>
      <point x="251" y="453"/>
      <point x="243" y="508" type="curve"/>
      <point x="3" y="502" type="line"/>
      <point x="28" y="428"/>
      <point x="53" y="353"/>
      <point x="78" y="279" type="curve"/>
      <point x="108" y="190" type="line"/>
      <point x="129" y="127"/>
      <point x="151" y="63"/>
    </contour>
  </outline>
</glyph>
<glyph name="z" format="2">
  <advance width="536"/>
  <unicode hex="007A"/>
  <anchor x="267" y="0" name="bottom"/>
  <anchor x="267" y="251" name="center"/>
  <anchor x="267" y="502" name="top"/>
  <outline>
    <contour>
      <point x="24" y="0" type="line"/>
      <point x="512" y="0" type="line"/>
      <point x="512" y="160" type="line"/>
      <point x="463" y="160"/>
      <point x="397" y="160"/>
      <point x="357" y="160" type="curve"/>
      <point x="269" y="160" type="line"/>
      <point x="291" y="113" type="line"/>
      <point x="394" y="247" type="line"/>
      <point x="428" y="291"/>
      <point x="469" y="344"/>
      <point x="499" y="382" type="curve"/>
      <point x="499" y="502" type="line"/>
      <point x="31" y="502" type="line"/>
      <point x="31" y="341" type="line"/>
      <point x="85" y="341"/>
      <point x="154" y="341"/>
      <point x="194" y="341" type="curve"/>
      <point x="276" y="341" type="line"/>
      <point x="249" y="396" type="line"/>
      <point x="134" y="245" type="line"/>
      <point x="103" y="203"/>
      <point x="64" y="152"/>
      <point x="24" y="100" type="curve"/>
    </contour>
  </outline>
</glyph>
<glyph name="bar" format="2">
  <advance width="302"/>
  <unicode hex="007C"/>
  <outline>
    <contour>
      <point x="56" y="-164" type="curve"/>
      <point x="246" y="-164" type="line"/>
      <point x="246" y="-26"/>
      <point x="246" y="127"/>
      <point x="246" y="165" type="curve"/>
      <point x="246" y="447" type="line"/>
      <point x="246" y="485"/>
      <point x="246" y="638"/>
      <point x="246" y="776" type="curve"/>
      <point x="56" y="776" type="line"/>
      <point x="56" y="638"/>
      <point x="56" y="485"/>
      <point x="56" y="447" type="curve"/>
      <point x="56" y="165" type="line"/>
      <point x="56" y="127"/>
      <point x="56" y="-26"/>
    </contour>
  </outline>
</glyph>
<glyph name="sterling" format="2">
  <advance width="623"/>
  <unicode hex="00A3"/>
  <outline>
    <contour>
      <point x="35" y="0" type="line"/>
      <point x="593" y="0" type="line"/>
      <point x="593" y="200" type="line"/>
      <point x="521" y="200"/>
      <point x="419" y="200"/>
      <point x="333" y="200" type="curve"/>
      <point x="206" y="200" type="line"/>
      <point x="221" y="170" type="line"/>
      <point x="318" y="221"/>
      <point x="339" y="270"/>
      <point x="339" y="330" type="curve" smooth="yes"/>
      <point x="339" y="419" type="line" smooth="yes"/>
      <point x="339" y="482"/>
      <point x="371" y="513"/>
      <point x="423" y="513" type="curve"/>
      <point x="449" y="513"/>
      <point x="490" y="510"/>
      <point x="553" y="480" type="curve"/>
      <point x="572" y="672" type="line"/>
      <point x="531" y="694"/>
      <point x="466" y="706"/>
      <point x="403" y="706" type="curve" smooth="yes"/>
      <point x="193" y="706"/>
      <point x="104" y="604"/>
      <point x="104" y="426" type="curve" smooth="yes"/>
      <point x="104" y="368"/>
      <point x="104" y="311"/>
      <point x="104" y="254" type="curve"/>
      <point x="104" y="206"/>
      <point x="92" y="157"/>
      <point x="35" y="114" type="curve"/>
    </contour>
    <contour>
      <point x="43" y="282" type="line"/>
      <point x="118" y="282"/>
      <point x="194" y="282"/>
      <point x="251" y="282" type="curve"/>
      <point x="295" y="282" type="line"/>
      <point x="352" y="282"/>
      <point x="428" y="282"/>
      <point x="503" y="282" type="curve"/>
      <point x="503" y="432" type="line"/>
      <point x="428" y="432"/>
      <point x="352" y="432"/>
      <point x="295" y="432" type="curve"/>
      <point x="251" y="432" type="line"/>
      <point x="194" y="432"/>
      <point x="118" y="432"/>
      <point x="43" y="432" type="curve"/>
    </contour>
  </outline>
</glyph>
<glyph name="yen" format="2">
  <advance width="679"/>
  <unicode hex="00A5"/>
  <outline>
    <contour>
      <point x="229" y="220" type="line"/>
      <point x="454" y="220" type="line"/>
      <point x="583" y="506" type="line"/>
      <point x="610" y="566"/>
      <point x="639" y="630"/>
      <point x="666" y="690" type="curve"/>
      <point x="410" y="690" type="line"/>
      <point x="394" y="627"/>
      <point x="386" y="596"/>
      <point x="373" y="545" type="curve"/>
      <point x="351" y="460" type="line"/>
      <point x="333" y="460" type="line"/>
      <point x="313" y="544" type="line"/>
      <point x="301" y="594"/>
      <point x="294" y="623"/>
      <point x="278" y="690" type="curve"/>
      <point x="13" y="690" type="line"/>
      <point x="56" y="596"/>
      <point x="73" y="559"/>
      <point x="98" y="505" type="curve"/>
    </contour>
    <contour>
      <point x="225" y="0" type="curve"/>
      <point x="459" y="0" type="line"/>
      <point x="459" y="71"/>
      <point x="459" y="133"/>
      <point x="459" y="220" type="curve"/>
      <point x="459" y="411" type="line"/>
      <point x="225" y="411" type="line"/>
      <point x="225" y="220" type="line"/>
      <point x="225" y="133"/>
      <point x="225" y="71"/>
    </contour>
    <contour>
      <point x="61" y="97" type="line"/>
      <point x="136" y="97"/>
      <point x="212" y="97"/>
      <point x="269" y="97" type="curve"/>
      <point x="413" y="97" type="line"/>
      <point x="470" y="97"/>
      <point x="546" y="97"/>
      <point x="621" y="97" type="curve"/>
      <point x="621" y="227" type="line"/>
      <point x="546" y="227"/>
      <point x="470" y="227"/>
      <point x="413" y="227" type="curve"/>
      <point x="269" y="227" type="line"/>
      <point x="212" y="227"/>
      <point x="136" y="227"/>
      <point x="61" y="227" type="curve"/>
    </contour>
    <contour>
      <point x="61" y="276" type="line"/>
      <point x="136" y="276"/>
      <point x="212" y="276"/>
      <point x="269" y="276" type="curve"/>
      <point x="413" y="276" type="line"/>
      <point x="470" y="276"/>
      <point x="546" y="276"/>
      <point x="621" y="276" type="curve"/>
      <point x="621" y="406" type="line"/>
      <point x="546" y="406"/>
      <point x="470" y="406"/>
      <point x="413" y="406" type="curve"/>
      <point x="269" y="406" type="line"/>
      <point x="212" y="406"/>
      <point x="136" y="406"/>
      <point x="61" y="406" type="curve"/>
    </contour>
  </outline>
</glyph>
<glyph name="logicalnot" format="2">
  <advance width="590"/>
  <unicode hex="00AC"/>
  <outline>
    <contour>
      <point x="354" y="44" type="curve"/>
      <point x="550" y="44" type="line"/>
      <point x="550" y="119"/>
      <point x="550" y="195"/>
      <point x="550" y="252" type="curve"/>
      <point x="550" y="404" type="line"/>
      <point x="475" y="404"/>
      <point x="399" y="404"/>
      <point x="342" y="404" type="curve"/>
      <point x="248" y="404" type="line"/>
      <point x="191" y="404"/>
      <point x="115" y="404"/>
      <point x="40" y="404" type="curve"/>
      <point x="40" y="214" type="line"/>
      <point x="115" y="214"/>
      <point x="191" y="214"/>
      <point x="248" y="214" type="curve"/>
      <point x="342" y="214" type="line"/>
      <point x="391" y="214"/>
      <point x="456" y="214"/>
      <point x="520" y="214" type="curve"/>
      <point x="354" y="350" type="line"/>
      <point x="354" y="252" type="line"/>
      <point x="354" y="195"/>
      <point x="354" y="119"/>
    </contour>
  </outline>
</glyph>
<glyph name="registered" format="2">
  <advance width="608"/>
  <unicode hex="00AE"/>
  <outline>
    <contour>
      <point x="307" y="225" type="curve" smooth="yes"/>
      <point x="484" y="225"/>
      <point x="573" y="337"/>
      <point x="573" y="488" type="curve" smooth="yes"/>
      <point x="573" y="631"/>
      <point x="491" y="749"/>
      <point x="301" y="749" type="curve" smooth="yes"/>
      <point x="115" y="749"/>
      <point x="35" y="632"/>
      <point x="35" y="487" type="curve" smooth="yes"/>
      <point x="35" y="352"/>
      <point x="111" y="225"/>
    </contour>
    <contour>
      <point x="188" y="354" type="curve"/>
      <point x="276" y="354" type="line"/>
      <point x="276" y="387"/>
      <point x="276" y="413"/>
      <point x="276" y="448" type="curve"/>
      <point x="276" y="540" type="line"/>
      <point x="276" y="576"/>
      <point x="276" y="602"/>
      <point x="276" y="625" type="curve"/>
      <point x="188" y="639" type="line"/>
      <point x="188" y="604"/>
      <point x="188" y="579"/>
      <point x="188" y="544" type="curve"/>
      <point x="188" y="448" type="line"/>
      <point x="188" y="411"/>
      <point x="188" y="390"/>
    </contour>
    <contour>
      <point x="306" y="284" type="curve"/>
      <point x="146" y="284"/>
      <point x="101" y="389"/>
      <point x="101" y="487" type="curve" smooth="yes"/>
      <point x="101" y="597"/>
      <point x="151" y="691"/>
      <point x="302" y="691" type="curve"/>
      <point x="455" y="691"/>
      <point x="507" y="594"/>
      <point x="507" y="488" type="curve" smooth="yes"/>
      <point x="507" y="375"/>
      <point x="447" y="284"/>
    </contour>
    <contour>
      <point x="346" y="354" type="curve"/>
      <point x="446" y="354" type="line"/>
      <point x="433" y="376"/>
      <point x="414" y="409"/>
      <point x="397" y="438" type="curve"/>
      <point x="363" y="496" type="line"/>
      <point x="327" y="468" type="line"/>
      <point x="400" y="468"/>
      <point x="424" y="507"/>
      <point x="424" y="556" type="curve" smooth="yes"/>
      <point x="424" y="615"/>
      <point x="385" y="642"/>
      <point x="306" y="642" type="curve"/>
      <point x="255" y="642"/>
      <point x="215" y="639"/>
      <point x="188" y="639" type="curve"/>
      <point x="248" y="572" type="line"/>
      <point x="302" y="572" type="line" smooth="yes"/>
      <point x="313" y="572"/>
      <point x="332" y="571"/>
      <point x="332" y="544" type="curve" smooth="yes"/>
      <point x="332" y="519"/>
      <point x="317" y="511"/>
      <point x="296" y="511" type="curve" smooth="yes"/>
      <point x="258" y="511" type="line"/>
      <point x="258" y="458" type="line"/>
      <point x="327" y="458" type="line"/>
      <point x="274" y="490" type="line"/>
      <point x="309" y="424" type="line"/>
      <point x="320" y="403"/>
      <point x="333" y="379"/>
    </contour>
  </outline>
</glyph>
<glyph name="AE" format="2">
  <advance width="1022"/>
  <unicode hex="00C6"/>
  <anchor x="588" y="0" name="bottom"/>
  <anchor x="588" y="713" name="top"/>
  <outline>
    <contour>
      <point x="10" y="0" type="curve"/>
      <point x="257" y="0" type="line"/>
      <point x="281" y="69"/>
      <point x="307" y="145"/>
      <point x="331" y="213" type="curve"/>
      <point x="437" y="520" type="line"/>
      <point x="469" y="520" type="line"/>
      <point x="625" y="520" type="line"/>
      <point x="652" y="713" type="line"/>
      <point x="302" y="713" type="line"/>
      <point x="273" y="642"/>
      <point x="243" y="568"/>
      <point x="210" y="487" type="curve"/>
      <point x="109" y="242" type="line"/>
      <point x="78" y="166"/>
      <point x="42" y="78"/>
    </contour>
    <contour>
      <point x="246" y="116" type="line"/>
      <point x="569" y="116" type="line"/>
      <point x="546" y="296" type="line"/>
      <point x="274" y="296" type="line"/>
    </contour>
    <contour>
      <point x="468" y="0" type="curve"/>
      <point x="708" y="0" type="line"/>
      <point x="708" y="40" type="line"/>
      <point x="708" y="114"/>
      <point x="708" y="178"/>
      <point x="708" y="269" type="curve"/>
      <point x="708" y="434" type="line"/>
      <point x="708" y="529"/>
      <point x="708" y="596"/>
      <point x="708" y="673" type="curve"/>
      <point x="708" y="713" type="line"/>
      <point x="468" y="713" type="line"/>
      <point x="468" y="636"/>
      <point x="468" y="569"/>
      <point x="468" y="474" type="curve"/>
      <point x="468" y="229" type="line"/>
      <point x="468" y="138"/>
      <point x="468" y="74"/>
    </contour>
    <contour>
      <point x="682" y="0" type="line"/>
      <point x="982" y="0" type="line"/>
      <point x="982" y="193" type="line"/>
      <point x="928" y="193"/>
      <point x="854" y="193"/>
      <point x="789" y="193" type="curve"/>
      <point x="682" y="193" type="line"/>
    </contour>
    <contour>
      <point x="651" y="271" type="line"/>
      <point x="773" y="271" type="line"/>
      <point x="842" y="271"/>
      <point x="913" y="271"/>
      <point x="964" y="271" type="curve"/>
      <point x="964" y="443" type="line"/>
      <point x="917" y="443"/>
      <point x="854" y="443"/>
      <point x="773" y="443" type="curve"/>
      <point x="651" y="443" type="line"/>
    </contour>
    <contour>
      <point x="666" y="520" type="line"/>
      <point x="773" y="520" type="line"/>
      <point x="851" y="520"/>
      <point x="919" y="520"/>
      <point x="975" y="520" type="curve"/>
      <point x="975" y="713" type="line"/>
      <point x="666" y="713" type="line"/>
    </contour>
  </outline>
</glyph>
<glyph name="multiply" format="2">
  <advance width="598"/>
  <unicode hex="00D7"/>
  <outline>
    <contour>
      <point x="433" y="40" type="curve"/>
      <point x="568" y="175" type="line"/>
      <point x="515" y="228"/>
      <point x="461" y="281"/>
      <point x="421" y="322" type="curve"/>
      <point x="312" y="431" type="line"/>
      <point x="271" y="471"/>
      <point x="218" y="525"/>
      <point x="165" y="578" type="curve"/>
      <point x="30" y="443" type="line"/>
      <point x="83" y="390"/>
      <point x="137" y="337"/>
      <point x="177" y="296" type="curve"/>
      <point x="286" y="187" type="line"/>
      <point x="327" y="147"/>
      <point x="380" y="93"/>
    </contour>
    <contour>
      <point x="165" y="40" type="line"/>
      <point x="218" y="93"/>
      <point x="271" y="147"/>
      <point x="312" y="187" type="curve"/>
      <point x="421" y="296" type="line"/>
      <point x="461" y="337"/>
      <point x="515" y="390"/>
      <point x="568" y="443" type="curve"/>
      <point x="433" y="578" type="line"/>
      <point x="380" y="525"/>
      <point x="327" y="471"/>
      <point x="286" y="431" type="curve"/>
      <point x="177" y="322" type="line"/>
      <point x="137" y="281"/>
      <point x="83" y="228"/>
      <point x="30" y="175" type="curve"/>
    </contour>
  </outline>
</glyph>
<glyph name="Thorn" format="2">
  <advance width="673"/>
  <unicode hex="00DE"/>
  <outline>
    <contour>
      <point x="46" y="0" type="curve"/>
      <point x="287" y="0" type="line"/>
      <point x="287" y="74"/>
      <point x="287" y="138"/>
      <point x="287" y="229" type="curve"/>
      <point x="287" y="474" type="line"/>
      <point x="287" y="569"/>
      <point x="287" y="636"/>
      <point x="287" y="713" type="curve"/>
      <point x="46" y="713" type="line"/>
      <point x="46" y="636"/>
      <point x="46" y="569"/>
      <point x="46" y="474" type="curve"/>
      <point x="46" y="229" type="line"/>
      <point x="46" y="138"/>
      <point x="46" y="74"/>
    </contour>
    <contour>
      <point x="405" y="122" type="curve"/>
      <point x="577" y="122"/>
      <point x="653" y="222"/>
      <point x="653" y="375" type="curve" smooth="yes"/>
      <point x="653" y="569"/>
      <point x="553" y="622"/>
      <point x="368" y="622" type="curve"/>
      <point x="327" y="622"/>
      <point x="295" y="622"/>
      <point x="258" y="622" type="curve"/>
      <point x="258" y="437" type="line"/>
      <point x="351" y="437" type="line" smooth="yes"/>
      <point x="384" y="437"/>
      <point x="404" y="413"/>
      <point x="404" y="366" type="curve" smooth="yes"/>
      <point x="404" y="318"/>
      <point x="387" y="294"/>
      <point x="345" y="294" type="curve" smooth="yes"/>
      <point x="258" y="294" type="line"/>
      <point x="258" y="122" type="line"/>
      <point x="295" y="122"/>
      <point x="358" y="122"/>
    </contour>
  </outline>
</glyph>
<glyph name="eth" format="2">
  <advance width="598"/>
  <unicode hex="00F0"/>
  <outline>
    <contour>
      <point x="302" y="-16" type="curve" smooth="yes"/>
      <point x="507" y="-16"/>
      <point x="580" y="114"/>
      <point x="580" y="303" type="curve" smooth="yes"/>
      <point x="580" y="447"/>
      <point x="520" y="565"/>
      <point x="423" y="656" type="curve"/>
      <point x="380" y="696"/>
      <point x="331" y="730"/>
      <point x="276" y="760" type="curve"/>
      <point x="99" y="698" type="line"/>
      <point x="162" y="659"/>
      <point x="214" y="616"/>
      <point x="254" y="571" type="curve"/>
      <point x="319" y="497"/>
      <point x="354" y="417"/>
      <point x="354" y="329" type="curve" smooth="yes"/>
      <point x="354" y="212"/>
      <point x="337" y="161"/>
      <point x="301" y="161" type="curve"/>
      <point x="265" y="161"/>
      <point x="244" y="196"/>
      <point x="244" y="229" type="curve" smooth="yes"/>
      <point x="244" y="261"/>
      <point x="264" y="294"/>
      <point x="300" y="294" type="curve"/>
      <point x="314" y="294"/>
      <point x="342" y="289"/>
      <point x="368" y="260" type="curve"/>
      <point x="414" y="317"/>
      <point x="401" y="376"/>
      <point x="347" y="433" type="curve"/>
      <point x="326" y="414" type="line"/>
      <point x="302" y="432"/>
      <point x="246" y="447"/>
      <point x="202" y="447" type="curve" smooth="yes"/>
      <point x="98" y="447"/>
      <point x="18" y="376"/>
      <point x="18" y="239" type="curve" smooth="yes"/>
      <point x="18" y="105"/>
      <point x="100" y="-16"/>
    </contour>
    <contour>
      <point x="141" y="471" type="line"/>
      <point x="204" y="494"/>
      <point x="267" y="517"/>
      <point x="322" y="537" type="curve"/>
      <point x="371" y="555" type="line"/>
      <point x="426" y="575"/>
      <point x="489" y="598"/>
      <point x="554" y="622" type="curve"/>
      <point x="510" y="745" type="line"/>
      <point x="444" y="721"/>
      <point x="385" y="699"/>
      <point x="330" y="679" type="curve"/>
      <point x="278" y="660" type="line"/>
      <point x="223" y="640"/>
      <point x="163" y="618"/>
      <point x="97" y="594" type="curve"/>
    </contour>
  </outline>
</glyph>
<glyph name="divide" format="2">
  <advance width="590"/>
  <unicode hex="00F7"/>
  <outline>
    <contour>
      <point x="40" y="214" type="line"/>
      <point x="115" y="214"/>
      <point x="191" y="214"/>
      <point x="248" y="214" type="curve"/>
      <point x="342" y="214" type="line"/>
      <point x="399" y="214"/>
      <point x="475" y="214"/>
      <point x="550" y="214" type="curve"/>
      <point x="550" y="404" type="line"/>
      <point x="475" y="404"/>
      <point x="399" y="404"/>
      <point x="342" y="404" type="curve"/>
      <point x="248" y="404" type="line"/>
      <point x="191" y="404"/>
      <point x="115" y="404"/>
      <point x="40" y="404" type="curve"/>
    </contour>
    <contour>
      <point x="293.48" y="-6.12" type="curve" smooth="yes"/>
      <point x="358.16" y="-6.12"/>
      <point x="396.8" y="38.4"/>
      <point x="396.8" y="93.84" type="curve" smooth="yes"/>
      <point x="396.8" y="149.28"/>
      <point x="358.16" y="191.28"/>
      <point x="294.32" y="191.28" type="curve" smooth="yes"/>
      <point x="229.64" y="191.28"/>
      <point x="191" y="149.28"/>
      <point x="191" y="93.84" type="curve" smooth="yes"/>
      <point x="191" y="38.4"/>
      <point x="229.64" y="-6.12"/>
    </contour>
    <contour>
      <point x="293.48" y="426.88" type="curve" smooth="yes"/>
      <point x="358.16" y="426.88"/>
      <point x="396.8" y="471.4"/>
      <point x="396.8" y="526.84" type="curve" smooth="yes"/>
      <point x="396.8" y="582.28"/>
      <point x="358.16" y="624.28"/>
      <point x="294.32" y="624.28" type="curve" smooth="yes"/>
      <point x="229.64" y="624.28"/>
      <point x="191" y="582.28"/>
      <point x="191" y="526.84" type="curve" smooth="yes"/>
      <point x="191" y="471.4"/>
      <point x="229.64" y="426.88"/>
    </contour>
  </outline>
</glyph>
<glyph name="oslash" format="2">
  <advance width="598"/>
  <unicode hex="00F8"/>
  <anchor x="299" y="502" name="top"/>
  <outline>
    <contour>
      <point x="302" y="-16" type="curve" smooth="yes"/>
      <point x="485" y="-16"/>
      <point x="580" y="97"/>
      <point x="580" y="251" type="curve" smooth="yes"/>
      <point x="580" y="400"/>
      <point x="493" y="518"/>
      <point x="297" y="518" type="curve" smooth="yes"/>
      <point x="106" y="518"/>
      <point x="18" y="401"/>
      <point x="18" y="251" type="curve" smooth="yes"/>
      <point x="18" y="111"/>
      <point x="100" y="-16"/>
    </contour>
    <contour>
      <point x="302" y="141" type="curve"/>
      <point x="253" y="141"/>
      <point x="224" y="192"/>
      <point x="224" y="251" type="curve" smooth="yes"/>
      <point x="224" y="315"/>
      <point x="251" y="361"/>
      <point x="300" y="361" type="curve"/>
      <point x="341" y="361"/>
      <point x="374" y="325"/>
      <point x="374" y="251" type="curve" smooth="yes"/>
      <point x="374" y="192"/>
      <point x="350" y="141"/>
    </contour>
    <contour>
      <point x="110" y="-81" type="line"/>
      <point x="159" y="-17"/>
      <point x="205" y="43"/>
      <point x="259" y="113" type="curve"/>
      <point x="408" y="309" type="line"/>
      <point x="462" y="380"/>
      <point x="506" y="438"/>
      <point x="557" y="505" type="curve"/>
      <point x="476" y="566" type="line"/>
      <point x="426" y="500"/>
      <point x="381" y="442"/>
      <point x="326" y="370" type="curve"/>
      <point x="180" y="179" type="line"/>
      <point x="127" y="109"/>
      <point x="84" y="54"/>
      <point x="32" y="-15" type="curve"/>
    </contour>
  </outline>
</glyph>
<glyph name="thorn" format="2">
  <advance width="593"/>
  <unicode hex="00FE"/>
  <outline>
    <contour>
      <point x="35" y="-198" type="curve"/>
      <point x="257" y="-192" type="line"/>
      <point x="257" y="-123"/>
      <point x="257" y="-63"/>
      <point x="257" y="8" type="curve"/>
      <point x="257" y="45" type="line"/>
      <point x="268" y="45" type="line"/>
      <point x="295" y="8"/>
      <point x="331" y="-16"/>
      <point x="385" y="-16" type="curve" smooth="yes"/>
      <point x="516" y="-16"/>
      <point x="573" y="112"/>
      <point x="573" y="251" type="curve" smooth="yes"/>
      <point x="573" y="400"/>
      <point x="512" y="518"/>
      <point x="392" y="518" type="curve" smooth="yes"/>
      <point x="335" y="518"/>
      <point x="300" y="490"/>
      <point x="274" y="447" type="curve"/>
      <point x="257" y="447" type="line"/>
      <point x="257" y="493" type="line"/>
      <point x="257" y="589"/>
      <point x="257" y="673"/>
      <point x="257" y="750" type="curve"/>
      <point x="35" y="734" type="line"/>
      <point x="35" y="651"/>
      <point x="35" y="572"/>
      <point x="35" y="493" type="curve"/>
      <point x="35" y="21" type="line"/>
      <point x="35" y="-63"/>
      <point x="35" y="-129"/>
    </contour>
    <contour>
      <point x="294" y="169" type="curve"/>
      <point x="275" y="169"/>
      <point x="262" y="182"/>
      <point x="257" y="197" type="curve"/>
      <point x="257" y="312" type="line"/>
      <point x="265" y="322"/>
      <point x="279" y="330"/>
      <point x="294" y="330" type="curve"/>
      <point x="328" y="330"/>
      <point x="346" y="292"/>
      <point x="346" y="249" type="curve" smooth="yes"/>
      <point x="346" y="209"/>
      <point x="327" y="169"/>
    </contour>
  </outline>
</glyph>
<glyph name="kgreenlandic" format="2">
  <advance width="609"/>
  <unicode hex="0138"/>
  <outline>
    <contour>
      <point x="344" y="0" type="curve"/>
      <point x="609" y="0" type="line"/>
      <point x="573" y="63"/>
      <point x="536" y="127"/>
      <point x="500" y="190" type="curve"/>
      <point x="424" y="321" type="line"/>
      <point x="435" y="226" type="line"/>
      <point x="490" y="317" type="line"/>
      <point x="528" y="379"/>
      <point x="565" y="440"/>
      <point x="603" y="502" type="curve"/>
      <point x="351" y="502" type="line"/>
      <point x="336" y="462"/>
      <point x="321" y="423"/>
      <point x="306" y="383" type="curve"/>
      <point x="281" y="318" type="line"/>
      <point x="241" y="318" type="line"/>
      <point x="241" y="176" type="line"/>
      <point x="281" y="176" type="line"/>
      <point x="305" y="108" type="line"/>
      <point x="318" y="72"/>
      <point x="331" y="36"/>
    </contour>
    <contour>
      <point x="35" y="0" type="curve"/>
      <point x="257" y="0" type="line"/>
      <point x="257" y="57"/>
      <point x="257" y="107"/>
      <point x="257" y="166" type="curve"/>
      <point x="257" y="303" type="line"/>
      <point x="257" y="373"/>
      <point x="257" y="439"/>
      <point x="257" y="508" type="curve"/>
      <point x="35" y="502" type="line"/>
      <point x="35" y="433"/>
      <point x="35" y="383"/>
      <point x="35" y="273" type="curve"/>
      <point x="35" y="213" type="line"/>
      <point x="35" y="129"/>
      <point x="35" y="69"/>
    </contour>
  </outline>
</glyph>
<glyph name="Lslash" format="2">
  <advance width="604"/>
  <unicode hex="0141"/>
  <outline>
    <contour>
      <point x="76" y="0" type="curve"/>
      <point x="322" y="0" type="line"/>
      <point x="322" y="40" type="line"/>
      <point x="322" y="114"/>
      <point x="322" y="178"/>
      <point x="322" y="269" type="curve"/>
      <point x="322" y="474" type="line"/>
      <point x="322" y="569"/>
      <point x="322" y="636"/>
      <point x="322" y="713" type="curve"/>
      <point x="76" y="713" type="line"/>
      <point x="76" y="636"/>
      <point x="76" y="569"/>
      <point x="76" y="474" type="curve"/>
      <point x="76" y="229" type="line"/>
      <point x="76" y="138"/>
      <point x="76" y="74"/>
    </contour>
    <contour>
      <point x="27" y="224" type="line"/>
      <point x="100" y="246"/>
      <point x="168" y="266"/>
      <point x="230" y="284" type="curve"/>
      <point x="284" y="300" type="line"/>
      <point x="346" y="318"/>
      <point x="415" y="339"/>
      <point x="487" y="360" type="curve"/>
      <point x="442" y="514" type="line"/>
      <point x="369" y="493"/>
      <point x="300" y="472"/>
      <point x="239" y="454" type="curve"/>
      <point x="184" y="438" type="line"/>
      <point x="123" y="420"/>
      <point x="56" y="400"/>
      <point x="-19" y="378" type="curve"/>
    </contour>
    <contour>
      <point x="290" y="0" type="line"/>
      <point x="580" y="0" type="line"/>
      <point x="580" y="212" type="line"/>
      <point x="518" y="212"/>
      <point x="465" y="212"/>
      <point x="374" y="212" type="curve"/>
      <point x="290" y="212" type="line"/>
    </contour>
  </outline>
</glyph>
<glyph name="lslash" format="2">
  <advance width="416"/>
  <unicode hex="0142"/>
  <outline>
    <contour>
      <point x="27" y="225" type="line"/>
      <point x="90" y="244"/>
      <point x="151" y="262"/>
      <point x="204" y="277" type="curve"/>
      <point x="252" y="292" type="line"/>
      <point x="306" y="308"/>
      <point x="366" y="325"/>
      <point x="430" y="344" type="curve"/>
      <point x="387" y="488" type="line"/>
      <point x="324" y="469"/>
      <point x="263" y="451"/>
      <point x="210" y="436" type="curve"/>
      <point x="162" y="421" type="line"/>
      <point x="108" y="405"/>
      <point x="48" y="388"/>
      <point x="-16" y="369" type="curve"/>
    </contour>
    <contour>
      <point x="97" y="0" type="curve"/>
      <point x="319" y="0" type="line"/>
      <point x="319" y="69"/>
      <point x="319" y="129"/>
      <point x="319" y="213" type="curve"/>
      <point x="319" y="493" type="line"/>
      <point x="319" y="589"/>
      <point x="319" y="673"/>
      <point x="319" y="750" type="curve"/>
      <point x="97" y="734" type="line"/>
      <point x="97" y="651"/>
      <point x="97" y="572"/>
      <point x="97" y="493" type="curve"/>
      <point x="97" y="213" type="line"/>
      <point x="97" y="129"/>
      <point x="97" y="69"/>
    </contour>
  </outline>
</glyph>
<glyph name="eng" format="2">
  <advance width="584"/>
  <unicode hex="014B"/>
  <outline>
    <contour>
      <point x="268" y="-198" type="curve"/>
      <point x="474" y="-192" type="line"/>
      <point x="531" y="-148"/>
      <point x="554" y="-72"/>
      <point x="554" y="24" type="curve" smooth="yes"/>
      <point x="554" y="110"/>
      <point x="554" y="181"/>
      <point x="554" y="263" type="curve"/>
      <point x="554" y="289"/>
      <point x="554" y="314"/>
      <point x="554" y="342" type="curve" smooth="yes"/>
      <point x="554" y="461"/>
      <point x="496" y="518"/>
      <point x="402" y="518" type="curve" smooth="yes"/>
      <point x="331" y="518"/>
      <point x="282" y="484"/>
      <point x="246" y="431" type="curve"/>
      <point x="229" y="431" type="line"/>
      <point x="219" y="512" type="line"/>
      <point x="35" y="502" type="line"/>
      <point x="35" y="419"/>
      <point x="35" y="342"/>
      <point x="35" y="263" type="curve"/>
      <point x="35" y="213" type="line"/>
      <point x="35" y="129"/>
      <point x="35" y="69"/>
      <point x="35" y="0" type="curve"/>
      <point x="257" y="0" type="line"/>
      <point x="257" y="69"/>
      <point x="257" y="129"/>
      <point x="257" y="200" type="curve"/>
      <point x="257" y="291" type="line"/>
      <point x="268" y="306"/>
      <point x="283" y="318"/>
      <point x="300" y="318" type="curve" smooth="yes"/>
      <point x="324" y="318"/>
      <point x="332" y="300"/>
      <point x="332" y="265" type="curve"/>
      <point x="332" y="200" type="line"/>
      <point x="332" y="45" type="line"/>
      <point x="332" y="-41"/>
      <point x="315" y="-133"/>
    </contour>
  </outline>
</glyph>
<glyph name="oe" format="2">
  <advance width="880"/>
  <unicode hex="0153"/>
  <anchor x="467" y="0" name="bottom"/>
  <anchor x="467" y="502" name="top"/>
  <outline>
    <contour>
      <point x="297" y="-16" type="curve" smooth="yes"/>
      <point x="470" y="-16"/>
      <point x="560" y="97"/>
      <point x="560" y="251" type="curve" smooth="yes"/>
      <point x="560" y="400"/>
      <point x="478" y="518"/>
      <point x="292" y="518" type="curve" smooth="yes"/>
      <point x="101" y="518"/>
      <point x="18" y="401"/>
      <point x="18" y="251" type="curve" smooth="yes"/>
      <point x="18" y="111"/>
      <point x="98" y="-16"/>
    </contour>
    <contour>
      <point x="301" y="161" type="curve"/>
      <point x="265" y="161"/>
      <point x="244" y="203"/>
      <point x="244" y="251" type="curve" smooth="yes"/>
      <point x="244" y="303"/>
      <point x="264" y="341"/>
      <point x="300" y="341" type="curve"/>
      <point x="330" y="341"/>
      <point x="354" y="312"/>
      <point x="354" y="251" type="curve" smooth="yes"/>
      <point x="354" y="203"/>
      <point x="337" y="161"/>
    </contour>
    <contour>
      <point x="667" y="-16" type="curve" smooth="yes"/>
      <point x="752" y="-16"/>
      <point x="813" y="-1"/>
      <point x="853" y="14" type="curve"/>
      <point x="846" y="196" type="line"/>
      <point x="798" y="174"/>
      <point x="728" y="163"/>
      <point x="696" y="163" type="curve" smooth="yes"/>
      <point x="613" y="163"/>
      <point x="580" y="191"/>
      <point x="580" y="248" type="curve"/>
      <point x="580" y="287" type="line"/>
      <point x="580" y="352"/>
      <point x="604" y="377"/>
      <point x="629" y="377" type="curve"/>
      <point x="653" y="377"/>
      <point x="670" y="348"/>
      <point x="670" y="303" type="curve" smooth="yes"/>
      <point x="670" y="296"/>
      <point x="669" y="287"/>
      <point x="668" y="279" type="curve"/>
      <point x="855" y="218" type="line"/>
      <point x="858" y="239"/>
      <point x="860" y="259"/>
      <point x="860" y="288" type="curve" smooth="yes"/>
      <point x="860" y="449"/>
      <point x="775" y="518"/>
      <point x="627" y="518" type="curve" smooth="yes"/>
      <point x="450" y="518"/>
      <point x="372" y="408"/>
      <point x="372" y="251" type="curve" smooth="yes"/>
      <point x="372" y="94"/>
      <point x="457" y="-16"/>
    </contour>
    <contour>
      <point x="455" y="218" type="line"/>
      <point x="855" y="218" type="line"/>
      <point x="855" y="298" type="line"/>
      <point x="728" y="310" type="line"/>
      <point x="455" y="300" type="line"/>
    </contour>
  </outline>
</glyph>
<glyph name="florin" format="2">
  <advance width="560"/>
  <unicode hex="0192"/>
  <outline>
    <contour>
      <point x="122" y="-145" type="curve" smooth="yes"/>
      <point x="231" y="-145"/>
      <point x="343" y="-106"/>
      <point x="358" y="70" type="curve" smooth="yes"/>
      <point x="369" y="189"/>
      <point x="378" y="295"/>
      <point x="388" y="414" type="curve"/>
      <point x="384" y="433" type="line"/>
      <point x="385" y="444"/>
      <point x="387" y="463"/>
      <point x="388" y="470" type="curve" smooth="yes"/>
      <point x="393" y="513"/>
      <point x="409" y="527"/>
      <point x="437" y="527" type="curve" smooth="yes"/>
      <point x="459" y="527"/>
      <point x="484" y="520"/>
      <point x="509" y="510" type="curve"/>
      <point x="540" y="687" type="line"/>
      <point x="518" y="696"/>
      <point x="471" y="706"/>
      <point x="414" y="706" type="curve" smooth="yes"/>
      <point x="301" y="706"/>
      <point x="188" y="667"/>
      <point x="173" y="491" type="curve" smooth="yes"/>
      <point x="161" y="351"/>
      <point x="148" y="210"/>
      <point x="136" y="70" type="curve" smooth="yes"/>
      <point x="133" y="39"/>
      <point x="118" y="34"/>
      <point x="99" y="34" type="curve" smooth="yes"/>
      <point x="80" y="34"/>
      <point x="54" y="41"/>
      <point x="26" y="51" type="curve"/>
      <point x="-5" y="-126" type="line"/>
      <point x="17" y="-135"/>
      <point x="64" y="-145"/>
    </contour>
    <contour>
      <point x="57" y="283" type="line"/>
      <point x="132" y="283"/>
      <point x="208" y="283"/>
      <point x="265" y="283" type="curve"/>
      <point x="309" y="283" type="line"/>
      <point x="366" y="283"/>
      <point x="442" y="283"/>
      <point x="517" y="283" type="curve"/>
      <point x="517" y="433" type="line"/>
      <point x="442" y="433"/>
      <point x="366" y="433"/>
      <point x="309" y="433" type="curve"/>
      <point x="265" y="433" type="line"/>
      <point x="208" y="433"/>
      <point x="132" y="433"/>
      <point x="57" y="433" type="curve"/>
    </contour>
  </outline>
</glyph>
<glyph name="verticallinemod" format="2">
  <advance width="230"/>
  <unicode hex="02C8"/>
  <outline>
    <contour>
      <point x="200" y="502" type="curve"/>
      <point x="31" y="502" type="line"/>
      <point x="31" y="591"/>
      <point x="31" y="686"/>
      <point x="31" y="779" type="curve"/>
      <point x="200" y="779" type="line"/>
      <point x="200" y="684"/>
      <point x="200" y="591"/>
    </contour>
  </outline>
</glyph>
<glyph name="gravecomb" format="2">
  <unicode hex="0300"/>
  <anchor x="300" y="502" name="_top"/>
  <anchor x="300" y="759" name="top"/>
  <outline>
    <contour>
      <point x="264" y="553" type="curve"/>
      <point x="422" y="555" type="line"/>
      <point x="385" y="629"/>
      <point x="347" y="702"/>
      <point x="310" y="776" type="curve"/>
      <point x="88" y="771" type="line"/>
      <point x="149" y="695"/>
      <point x="209" y="622"/>
    </contour>
  </outline>
</glyph>
<glyph name="dotaccentcomb" format="2">
  <unicode hex="0307"/>
  <anchor x="140.5" y="502" name="_top"/>
  <anchor x="141" y="721" name="top"/>
  <outline>
    <contour>
      <point x="140" y="538" type="curve" smooth="yes"/>
      <point x="218" y="538"/>
      <point x="265" y="569"/>
      <point x="265" y="647" type="curve" smooth="yes"/>
      <point x="265" y="711"/>
      <point x="218" y="753"/>
      <point x="141" y="753" type="curve" smooth="yes"/>
      <point x="63" y="753"/>
      <point x="16" y="714"/>
      <point x="16" y="647" type="curve" smooth="yes"/>
      <point x="16" y="569"/>
      <point x="63" y="538"/>
    </contour>
  </outline>
</glyph>
<glyph name="dblgravecomb" format="2">
  <unicode hex="030F"/>
  <anchor x="300" y="502" name="_top"/>
  <anchor x="300" y="767" name="top"/>
  <outline>
    <contour>
      <point x="133" y="553" type="curve"/>
      <point x="277" y="555" type="line"/>
      <point x="243" y="629"/>
      <point x="209" y="702"/>
      <point x="175" y="776" type="curve"/>
      <point x="-27" y="771" type="line"/>
      <point x="28" y="695"/>
      <point x="83" y="622"/>
    </contour>
    <contour>
      <point x="369" y="553" type="curve"/>
      <point x="509" y="555" type="line"/>
      <point x="484" y="629"/>
      <point x="457" y="702"/>
      <point x="432" y="776" type="curve"/>
      <point x="236" y="771" type="line"/>
      <point x="282" y="695"/>
      <point x="327" y="622"/>
    </contour>
  </outline>
</glyph>
<glyph name="macronbelowcomb" format="2">
  <unicode hex="0331"/>
  <anchor x="300" y="0" name="_bottom"/>
  <anchor x="300" y="0" name="bottom"/>
  <outline>
    <contour>
      <point x="114" y="-211" type="line"/>
      <point x="170" y="-211"/>
      <point x="232" y="-211"/>
      <point x="300" y="-211" type="curve"/>
      <point x="368" y="-211"/>
      <point x="430" y="-211"/>
      <point x="486" y="-211" type="curve"/>
      <point x="486" y="-51" type="line"/>
      <point x="430" y="-51"/>
      <point x="368" y="-51"/>
      <point x="300" y="-51" type="curve"/>
      <point x="232" y="-51"/>
      <point x="170" y="-51"/>
      <point x="114" y="-51" type="curve"/>
    </contour>
  </outline>
</glyph>
<glyph name="strokelongcomb" format="2">
  <unicode hex="0336"/>
  <anchor x="305" y="357" name="_center"/>
  <outline>
    <contour>
      <point x="-95" y="493" type="line"/>
      <point x="-19" y="493"/>
      <point x="53" y="493"/>
      <point x="116" y="493" type="curve"/>
      <point x="494" y="493" type="line"/>
      <point x="557" y="493"/>
      <point x="629" y="493"/>
      <point x="705" y="493" type="curve"/>
      <point x="705" y="644" type="line"/>
      <point x="629" y="644"/>
      <point x="557" y="644"/>
      <point x="494" y="644" type="curve"/>
      <point x="116" y="644" type="line"/>
      <point x="53" y="644"/>
      <point x="-19" y="644"/>
      <point x="-95" y="644" type="curve"/>
    </contour>
  </outline>
</glyph>
<glyph name="slashshortcomb" format="2">
  <unicode hex="0337"/>
  <anchor x="299" y="251" name="_center"/>
  <outline>
    <contour>
      <point x="110" y="-81" type="line"/>
      <point x="159" y="-17"/>
      <point x="205" y="43"/>
      <point x="259" y="113" type="curve"/>
      <point x="408" y="309" type="line"/>
      <point x="462" y="380"/>
      <point x="506" y="438"/>
      <point x="557" y="505" type="curve"/>
      <point x="476" y="566" type="line"/>
      <point x="426" y="500"/>
      <point x="381" y="442"/>
      <point x="326" y="370" type="curve"/>
      <point x="180" y="179" type="line"/>
      <point x="127" y="109"/>
      <point x="84" y="54"/>
      <point x="32" y="-15" type="curve"/>
    </contour>
  </outline>
</glyph>
<glyph name="pi" format="2">
  <advance width="648"/>
  <unicode hex="03C0"/>
  <outline>
    <contour>
      <point x="362" y="0" type="curve"/>
      <point x="577" y="0" type="line"/>
      <point x="577" y="71"/>
      <point x="577" y="139"/>
      <point x="577" y="204" type="curve"/>
      <point x="577" y="502" type="line"/>
      <point x="362" y="502" type="line"/>
      <point x="362" y="355"/>
      <point x="362" y="259"/>
      <point x="362" y="165" type="curve"/>
      <point x="362" y="152"/>
      <point x="362" y="64"/>
    </contour>
    <contour>
      <point x="76" y="0" type="curve"/>
      <point x="291" y="0" type="line"/>
      <point x="291" y="69"/>
      <point x="291" y="129"/>
      <point x="291" y="200" type="curve"/>
      <point x="291" y="263" type="line"/>
      <point x="291" y="343"/>
      <point x="291" y="425"/>
      <point x="291" y="502" type="curve"/>
      <point x="76" y="502" type="line"/>
      <point x="76" y="430"/>
      <point x="76" y="369"/>
      <point x="76" y="263" type="curve"/>
      <point x="76" y="213" type="line"/>
      <point x="76" y="129"/>
      <point x="76" y="70"/>
    </contour>
    <contour>
      <point x="12" y="339" type="line"/>
      <point x="145" y="339" type="line"/>
      <point x="458" y="339" type="line"/>
      <point x="511" y="339"/>
      <point x="570" y="339"/>
      <point x="628" y="339" type="curve"/>
      <point x="628" y="502" type="line"/>
      <point x="12" y="502" type="line"/>
    </contour>
  </outline>
</glyph>
<glyph name="endash" format="2">
  <advance width="640"/>
  <unicode hex="2013"/>
  <outline>
    <contour>
      <point x="40" y="209" type="line"/>
      <point x="115" y="209"/>
      <point x="191" y="209"/>
      <point x="248" y="209" type="curve"/>
      <point x="392" y="209" type="line"/>
      <point x="449" y="209"/>
      <point x="525" y="209"/>
      <point x="600" y="209" type="curve"/>
      <point x="600" y="399" type="line"/>
      <point x="525" y="399"/>
      <point x="449" y="399"/>
      <point x="392" y="399" type="curve"/>
      <point x="248" y="399" type="line"/>
      <point x="191" y="399"/>
      <point x="115" y="399"/>
      <point x="40" y="399" type="curve"/>
    </contour>
  </outline>
</glyph>
<glyph name="emdash" format="2">
  <advance width="810"/>
  <unicode hex="2014"/>
  <outline>
    <contour>
      <point x="40" y="209" type="line"/>
      <point x="138" y="209"/>
      <point x="237" y="209"/>
      <point x="311" y="209" type="curve"/>
      <point x="499" y="209" type="line"/>
      <point x="573" y="209"/>
      <point x="672" y="209"/>
      <point x="770" y="209" type="curve"/>
      <point x="770" y="399" type="line"/>
      <point x="672" y="399"/>
      <point x="573" y="399"/>
      <point x="499" y="399" type="curve"/>
      <point x="311" y="399" type="line"/>
      <point x="237" y="399"/>
      <point x="138" y="399"/>
      <point x="40" y="399" type="curve"/>
    </contour>
  </outline>
</glyph>
<glyph name="guilsinglleft" format="2">
  <advance width="421"/>
  <unicode hex="2039"/>
  <outline>
    <contour>
      <point x="177" y="-2" type="curve"/>
      <point x="391" y="9" type="line"/>
      <point x="341" y="88"/>
      <point x="291" y="167"/>
      <point x="241" y="246" type="curve"/>
      <point x="241" y="262" type="line"/>
      <point x="291" y="342"/>
      <point x="341" y="423"/>
      <point x="391" y="503" type="curve"/>
      <point x="177" y="516" type="line"/>
      <point x="123" y="430"/>
      <point x="69" y="343"/>
      <point x="15" y="257" type="curve"/>
      <point x="69" y="171"/>
      <point x="123" y="84"/>
    </contour>
  </outline>
</glyph>
<glyph name="colonsign" format="2">
  <advance width="651"/>
  <unicode hex="20A1"/>
  <outline>
    <contour>
      <point x="393" y="-15" type="curve" smooth="yes"/>
      <point x="471" y="-15"/>
      <point x="556" y="-3"/>
      <point x="611" y="24" type="curve"/>
      <point x="601" y="237" type="line"/>
      <point x="539" y="188"/>
      <point x="479" y="174"/>
      <point x="427" y="174" type="curve"/>
      <point x="318" y="174"/>
      <point x="268" y="253"/>
      <point x="268" y="344" type="curve" smooth="yes"/>
      <point x="268" y="457"/>
      <point x="330" y="509"/>
      <point x="410" y="509" type="curve"/>
      <point x="459" y="509"/>
      <point x="524" y="490"/>
      <point x="598" y="440" type="curve"/>
      <point x="614" y="656" type="line"/>
      <point x="555" y="685"/>
      <point x="465" y="705"/>
      <point x="381" y="705" type="curve" smooth="yes"/>
      <point x="147" y="705"/>
      <point x="24" y="549"/>
      <point x="24" y="343" type="curve" smooth="yes"/>
      <point x="24" y="120"/>
      <point x="167" y="-15"/>
    </contour>
    <contour>
      <point x="120" y="-137" type="curve"/>
      <point x="262" y="-137" type="line"/>
      <point x="291" y="1"/>
      <point x="323" y="152"/>
      <point x="331" y="190" type="curve"/>
      <point x="391" y="474" type="line"/>
      <point x="399" y="512"/>
      <point x="432" y="666"/>
      <point x="461" y="803" type="curve"/>
      <point x="319" y="803" type="line"/>
      <point x="290" y="666"/>
      <point x="257" y="512"/>
      <point x="249" y="474" type="curve"/>
      <point x="189" y="190" type="line"/>
      <point x="181" y="152"/>
      <point x="149" y="1"/>
    </contour>
    <contour>
      <point x="303" y="-137" type="curve"/>
      <point x="445" y="-137" type="line"/>
      <point x="474" y="1"/>
      <point x="506" y="152"/>
      <point x="514" y="190" type="curve"/>
      <point x="574" y="474" type="line"/>
      <point x="582" y="512"/>
      <point x="615" y="666"/>
      <point x="644" y="803" type="curve"/>
      <point x="502" y="803" type="line"/>
      <point x="473" y="666"/>
      <point x="440" y="512"/>
      <point x="432" y="474" type="curve"/>
      <point x="372" y="190" type="line"/>
      <point x="364" y="152"/>
      <point x="332" y="1"/>
    </contour>
  </outline>
</glyph>
<glyph name="euro" format="2">
  <advance width="726"/>
  <unicode hex="20AC"/>
  <outline>
    <contour>
      <point x="458" y="-15" type="curve" smooth="yes"/>
      <point x="527" y="-15"/>
      <point x="610" y="-8"/>
      <point x="666" y="14" type="curve"/>
      <point x="656" y="217" type="line"/>
      <point x="594" y="180"/>
      <point x="534" y="174"/>
      <point x="492" y="174" type="curve"/>
      <point x="383" y="174"/>
      <point x="343" y="253"/>
      <point x="343" y="344" type="curve" smooth="yes"/>
      <point x="343" y="457"/>
      <point x="395" y="509"/>
      <point x="475" y="509" type="curve"/>
      <point x="514" y="509"/>
      <point x="579" y="501"/>
      <point x="653" y="460" type="curve"/>
      <point x="669" y="666" type="line"/>
      <point x="610" y="691"/>
      <point x="520" y="705"/>
      <point x="446" y="705" type="curve" smooth="yes"/>
      <point x="212" y="705"/>
      <point x="99" y="549"/>
      <point x="99" y="343" type="curve" smooth="yes"/>
      <point x="99" y="120"/>
      <point x="232" y="-15"/>
    </contour>
    <contour>
      <point x="26" y="231" type="line"/>
      <point x="101" y="231"/>
      <point x="177" y="231"/>
      <point x="234" y="231" type="curve"/>
      <point x="348" y="231" type="line"/>
      <point x="405" y="231"/>
      <point x="481" y="231"/>
      <point x="556" y="231" type="curve"/>
      <point x="556" y="321" type="line"/>
      <point x="481" y="321"/>
      <point x="405" y="321"/>
      <point x="348" y="321" type="curve"/>
      <point x="234" y="321" type="line"/>
      <point x="177" y="321"/>
      <point x="101" y="321"/>
      <point x="26" y="321" type="curve"/>
    </contour>
    <contour>
      <point x="26" y="360" type="line"/>
      <point x="101" y="360"/>
      <point x="177" y="360"/>
      <point x="234" y="360" type="curve"/>
      <point x="378" y="360" type="line"/>
      <point x="435" y="360"/>
      <point x="511" y="360"/>
      <point x="586" y="360" type="curve"/>
      <point x="586" y="450" type="line"/>
      <point x="511" y="450"/>
      <point x="435" y="450"/>
      <point x="378" y="450" type="curve"/>
      <point x="234" y="450" type="line"/>
      <point x="177" y="450"/>
      <point x="101" y="450"/>
      <point x="26" y="450" type="curve"/>
    </contour>
  </outline>
</glyph>
<glyph name="kip" format="2">
  <advance width="783"/>
  <unicode hex="20AD"/>
  <outline>
    <contour>
      <point x="480" y="0" type="curve"/>
      <point x="758" y="0" type="line"/>
      <point x="721" y="68"/>
      <point x="659" y="183"/>
      <point x="617" y="261" type="curve"/>
      <point x="522" y="437" type="line"/>
      <point x="528" y="334" type="line"/>
      <point x="615" y="472" type="line"/>
      <point x="657" y="539"/>
      <point x="703" y="612"/>
      <point x="752" y="690" type="curve"/>
      <point x="488" y="690" type="line"/>
      <point x="458" y="627"/>
      <point x="438" y="584"/>
      <point x="414" y="534" type="curve"/>
      <point x="364" y="428" type="line"/>
      <point x="318" y="428" type="line"/>
      <point x="318" y="288" type="line"/>
      <point x="367" y="288" type="line"/>
      <point x="417" y="161" type="line"/>
      <point x="436" y="112"/>
      <point x="457" y="59"/>
    </contour>
    <contour>
      <point x="116" y="0" type="curve"/>
      <point x="350" y="0" type="line"/>
      <point x="350" y="71"/>
      <point x="350" y="133"/>
      <point x="350" y="220" type="curve"/>
      <point x="350" y="461" type="line"/>
      <point x="350" y="552"/>
      <point x="350" y="617"/>
      <point x="350" y="690" type="curve"/>
      <point x="116" y="690" type="line"/>
      <point x="116" y="617"/>
      <point x="116" y="552"/>
      <point x="116" y="461" type="curve"/>
      <point x="116" y="220" type="line"/>
      <point x="116" y="133"/>
      <point x="116" y="71"/>
    </contour>
    <contour>
      <point x="25" y="283" type="line"/>
      <point x="100" y="283"/>
      <point x="176" y="283"/>
      <point x="233" y="283" type="curve"/>
      <point x="547" y="283" type="line"/>
      <point x="604" y="283"/>
      <point x="680" y="283"/>
      <point x="755" y="283" type="curve"/>
      <point x="755" y="433" type="line"/>
      <point x="680" y="433"/>
      <point x="604" y="433"/>
      <point x="547" y="433" type="curve"/>
      <point x="233" y="433" type="line"/>
      <point x="176" y="433"/>
      <point x="100" y="433"/>
      <point x="25" y="433" type="curve"/>
    </contour>
  </outline>
</glyph>
<glyph name="cedi" format="2">
  <advance width="651"/>
  <unicode hex="20B5"/>
  <outline>
    <contour>
      <point x="306" y="-137" type="curve"/>
      <point x="466" y="-137" type="line"/>
      <point x="466" y="1"/>
      <point x="466" y="154"/>
      <point x="466" y="192" type="curve"/>
      <point x="466" y="474" type="line"/>
      <point x="466" y="512"/>
      <point x="466" y="665"/>
      <point x="466" y="803" type="curve"/>
      <point x="306" y="803" type="line"/>
      <point x="306" y="665"/>
      <point x="306" y="512"/>
      <point x="306" y="474" type="curve"/>
      <point x="306" y="192" type="line"/>
      <point x="306" y="154"/>
      <point x="306" y="1"/>
    </contour>
    <contour>
      <point x="393" y="-15" type="curve" smooth="yes"/>
      <point x="471" y="-15"/>
      <point x="556" y="-3"/>
      <point x="611" y="24" type="curve"/>
      <point x="601" y="237" type="line"/>
      <point x="539" y="188"/>
      <point x="479" y="174"/>
      <point x="427" y="174" type="curve"/>
      <point x="318" y="174"/>
      <point x="268" y="253"/>
      <point x="268" y="344" type="curve" smooth="yes"/>
      <point x="268" y="457"/>
      <point x="330" y="509"/>
      <point x="410" y="509" type="curve"/>
      <point x="459" y="509"/>
      <point x="524" y="490"/>
      <point x="598" y="440" type="curve"/>
      <point x="614" y="656" type="line"/>
      <point x="555" y="685"/>
      <point x="465" y="705"/>
      <point x="381" y="705" type="curve" smooth="yes"/>
      <point x="147" y="705"/>
      <point x="24" y="549"/>
      <point x="24" y="343" type="curve" smooth="yes"/>
      <point x="24" y="120"/>
      <point x="167" y="-15"/>
    </contour>
  </outline>
</glyph>
<glyph name="rupeeIndian" format="2">
  <advance width="645"/>
  <unicode hex="20B9"/>
  <outline>
    <contour>
      <point x="304" y="224" type="curve" smooth="yes"/>
      <point x="435" y="224"/>
      <point x="493" y="305"/>
      <point x="493" y="391" type="curve" smooth="yes"/>
      <point x="493" y="467"/>
      <point x="464" y="505"/>
      <point x="412" y="524" type="curve"/>
      <point x="412" y="540" type="line"/>
      <point x="451" y="540" type="line" smooth="yes"/>
      <point x="491" y="540"/>
      <point x="557" y="540"/>
      <point x="610" y="540" type="curve"/>
      <point x="610" y="690" type="line"/>
      <point x="50" y="690" type="line"/>
      <point x="50" y="540" type="line"/>
      <point x="92" y="540"/>
      <point x="135" y="540"/>
      <point x="177" y="540" type="curve"/>
      <point x="236" y="540"/>
      <point x="259" y="501"/>
      <point x="259" y="433" type="curve" smooth="yes"/>
      <point x="259" y="341"/>
      <point x="223" y="325"/>
      <point x="172" y="325" type="curve"/>
      <point x="139" y="325"/>
      <point x="94" y="325"/>
      <point x="50" y="325" type="curve"/>
      <point x="50" y="235" type="line"/>
      <point x="136" y="235" type="line"/>
      <point x="230" y="224" type="line"/>
      <point x="247" y="224"/>
      <point x="283" y="224"/>
    </contour>
    <contour>
      <point x="298" y="0" type="curve"/>
      <point x="593" y="0" type="line"/>
      <point x="534" y="53"/>
      <point x="455" y="125"/>
      <point x="393" y="181" type="curve"/>
      <point x="248" y="313" type="line"/>
      <point x="50" y="235" type="line"/>
      <point x="166" y="125" type="line"/>
      <point x="207" y="87"/>
      <point x="252" y="44"/>
    </contour>
    <contour>
      <point x="50" y="387" type="line"/>
      <point x="125" y="387"/>
      <point x="201" y="387"/>
      <point x="258" y="387" type="curve"/>
      <point x="402" y="387" type="line"/>
      <point x="459" y="387"/>
      <point x="535" y="387"/>
      <point x="610" y="387" type="curve"/>
      <point x="610" y="477" type="line"/>
      <point x="535" y="477"/>
      <point x="459" y="477"/>
      <point x="402" y="477" type="curve"/>
      <point x="258" y="477" type="line"/>
      <point x="201" y="477"/>
      <point x="125" y="477"/>
      <point x="50" y="477" type="curve"/>
    </contour>
  </outline>
</glyph>
<glyph name="liraTurkish" format="2">
  <advance width="756"/>
  <unicode hex="20BA"/>
  <outline>
    <contour>
      <point x="126" y="0" type="curve"/>
      <point x="320" y="0" type="line"/>
      <point x="361" y="38" type="line"/>
      <point x="361" y="109"/>
      <point x="361" y="171"/>
      <point x="361" y="258" type="curve"/>
      <point x="361" y="461" type="line"/>
      <point x="361" y="552"/>
      <point x="361" y="617"/>
      <point x="361" y="690" type="curve"/>
      <point x="126" y="690" type="line"/>
      <point x="126" y="617"/>
      <point x="126" y="552"/>
      <point x="126" y="461" type="curve"/>
      <point x="126" y="220" type="line"/>
      <point x="126" y="133"/>
      <point x="126" y="71"/>
    </contour>
    <contour>
      <point x="320" y="0" type="line"/>
      <point x="354" y="0" type="line" smooth="yes"/>
      <point x="543" y="0"/>
      <point x="656" y="82"/>
      <point x="701" y="225" type="curve"/>
      <point x="717" y="274"/>
      <point x="726" y="331"/>
      <point x="726" y="393" type="curve"/>
      <point x="491" y="393" type="line"/>
      <point x="491" y="360"/>
      <point x="489" y="331"/>
      <point x="484" y="306" type="curve"/>
      <point x="469" y="227"/>
      <point x="431" y="187"/>
      <point x="368" y="187" type="curve" smooth="yes"/>
      <point x="320" y="187" type="line"/>
    </contour>
    <contour>
      <point x="66" y="238" type="line"/>
      <point x="135" y="268"/>
      <point x="200" y="297"/>
      <point x="256" y="322" type="curve"/>
      <point x="342" y="360" type="line"/>
      <point x="399" y="386"/>
      <point x="464" y="415"/>
      <point x="532" y="445" type="curve"/>
      <point x="495" y="527" type="line"/>
      <point x="427" y="497"/>
      <point x="362" y="468"/>
      <point x="305" y="443" type="curve"/>
      <point x="220" y="404" type="line"/>
      <point x="163" y="379"/>
      <point x="98" y="350"/>
      <point x="30" y="320" type="curve"/>
    </contour>
    <contour>
      <point x="66" y="378" type="line"/>
      <point x="135" y="408"/>
      <point x="200" y="437"/>
      <point x="256" y="462" type="curve"/>
      <point x="342" y="500" type="line"/>
      <point x="399" y="526"/>
      <point x="464" y="555"/>
      <point x="532" y="585" type="curve"/>
      <point x="495" y="667" type="line"/>
      <point x="427" y="637"/>
      <point x="362" y="608"/>
      <point x="305" y="583" type="curve"/>
      <point x="220" y="544" type="line"/>
      <point x="163" y="519"/>
      <point x="98" y="490"/>
      <point x="30" y="460" type="curve"/>
    </contour>
  </outline>
</glyph>
<glyph name="ruble" format="2">
  <advance width="693"/>
  <unicode hex="20BD"/>
  <outline>
    <contour>
      <point x="298" y="272" type="line"/>
      <point x="334" y="272"/>
      <point x="393" y="272"/>
      <point x="438" y="272" type="curve"/>
      <point x="601" y="272"/>
      <point x="673" y="355"/>
      <point x="673" y="484" type="curve" smooth="yes"/>
      <point x="673" y="646"/>
      <point x="578" y="690"/>
      <point x="402" y="690" type="curve"/>
      <point x="263" y="690"/>
      <point x="154" y="690"/>
      <point x="96" y="690" type="curve"/>
      <point x="312" y="531" type="line"/>
      <point x="386" y="531" type="line" smooth="yes"/>
      <point x="417" y="531"/>
      <point x="436" y="513"/>
      <point x="436" y="476" type="curve" smooth="yes"/>
      <point x="436" y="434"/>
      <point x="415" y="420"/>
      <point x="381" y="420" type="curve" smooth="yes"/>
      <point x="298" y="420" type="line"/>
    </contour>
    <contour>
      <point x="96" y="0" type="curve"/>
      <point x="326" y="0" type="line"/>
      <point x="326" y="71"/>
      <point x="326" y="133"/>
      <point x="326" y="220" type="curve"/>
      <point x="326" y="423" type="line"/>
      <point x="326" y="536"/>
      <point x="326" y="578"/>
      <point x="326" y="652" type="curve"/>
      <point x="96" y="690" type="line"/>
      <point x="96" y="617"/>
      <point x="96" y="552"/>
      <point x="96" y="461" type="curve"/>
      <point x="96" y="220" type="line"/>
      <point x="96" y="133"/>
      <point x="96" y="71"/>
    </contour>
    <contour>
      <point x="25" y="85" type="line"/>
      <point x="100" y="85"/>
      <point x="176" y="85"/>
      <point x="233" y="85" type="curve"/>
      <point x="297" y="85" type="line"/>
      <point x="354" y="85"/>
      <point x="430" y="85"/>
      <point x="505" y="85" type="curve"/>
      <point x="505" y="215" type="line"/>
      <point x="430" y="215"/>
      <point x="354" y="215"/>
      <point x="297" y="215" type="curve"/>
      <point x="233" y="215" type="line"/>
      <point x="176" y="215"/>
      <point x="100" y="215"/>
      <point x="25" y="215" type="curve"/>
    </contour>
  </outline>
</glyph>
<glyph name="trademark" format="2">
  <advance width="897"/>
  <unicode hex="2122"/>
  <outline>
    <contour>
      <point x="365" y="310" type="curve"/>
      <point x="508" y="310" type="line"/>
      <point x="512" y="342"/>
      <point x="516" y="374"/>
      <point x="519" y="398" type="curve"/>
      <point x="526" y="455" type="line"/>
      <point x="536" y="455" type="line"/>
      <point x="552" y="400" type="line"/>
      <point x="561" y="368"/>
      <point x="570" y="338"/>
      <point x="578" y="310" type="curve"/>
      <point x="681" y="310" type="line"/>
      <point x="686" y="340"/>
      <point x="691" y="371"/>
      <point x="695" y="395" type="curve"/>
      <point x="705" y="455" type="line"/>
      <point x="715" y="455" type="line"/>
      <point x="722" y="401" type="line"/>
      <point x="726" y="372"/>
      <point x="730" y="340"/>
      <point x="734" y="310" type="curve"/>
      <point x="882" y="310" type="line"/>
      <point x="876" y="355"/>
      <point x="870" y="400"/>
      <point x="864" y="445" type="curve"/>
      <point x="847" y="574" type="line"/>
      <point x="841" y="619"/>
      <point x="835" y="664"/>
      <point x="829" y="709" type="curve"/>
      <point x="673" y="709" type="line"/>
      <point x="666" y="685"/>
      <point x="658" y="657"/>
      <point x="651" y="633" type="curve"/>
      <point x="631" y="563" type="line"/>
      <point x="621" y="563" type="line"/>
      <point x="597" y="634" type="line"/>
      <point x="589" y="658"/>
      <point x="581" y="682"/>
      <point x="572" y="709" type="curve"/>
      <point x="415" y="709" type="line"/>
      <point x="409" y="661"/>
      <point x="404" y="621"/>
      <point x="398" y="574" type="curve"/>
      <point x="382" y="445" type="line"/>
      <point x="376" y="397"/>
      <point x="371" y="358"/>
    </contour>
    <contour>
      <point x="110" y="310" type="curve"/>
      <point x="266" y="310" type="line"/>
      <point x="266" y="350"/>
      <point x="266" y="391"/>
      <point x="266" y="437" type="curve"/>
      <point x="266" y="550" type="line"/>
      <point x="266" y="597"/>
      <point x="266" y="641"/>
      <point x="266" y="684" type="curve"/>
      <point x="266" y="709" type="line"/>
      <point x="110" y="709" type="line"/>
      <point x="110" y="684" type="line"/>
      <point x="110" y="641"/>
      <point x="110" y="597"/>
      <point x="110" y="550" type="curve"/>
      <point x="110" y="437" type="line"/>
      <point x="110" y="391"/>
      <point x="110" y="350"/>
    </contour>
    <contour>
      <point x="15" y="575" type="line"/>
      <point x="42" y="575"/>
      <point x="72" y="575"/>
      <point x="106" y="575" type="curve"/>
      <point x="136" y="575" type="line"/>
      <point x="136" y="709" type="line"/>
      <point x="15" y="709" type="line"/>
    </contour>
    <contour>
      <point x="240" y="575" type="line"/>
      <point x="270" y="575" type="line"/>
      <point x="304" y="575"/>
      <point x="334" y="575"/>
      <point x="361" y="575" type="curve"/>
      <point x="361" y="709" type="line"/>
      <point x="240" y="709" type="line"/>
    </contour>
  </outline>
</glyph>
<glyph name="Ohm" format="2">
  <advance width="788"/>
  <unicode hex="2126"/>
  <outline>
    <contour>
      <point x="30" y="0" type="line"/>
      <point x="364" y="0" type="line"/>
      <point x="364" y="89"/>
      <point x="364" y="165"/>
      <point x="364" y="274" type="curve"/>
      <point x="335" y="294"/>
      <point x="288" y="343"/>
      <point x="288" y="410" type="curve" smooth="yes"/>
      <point x="288" y="481"/>
      <point x="338" y="528"/>
      <point x="394" y="528" type="curve"/>
      <point x="447" y="528"/>
      <point x="499" y="481"/>
      <point x="499" y="410" type="curve" smooth="yes"/>
      <point x="499" y="343"/>
      <point x="452" y="294"/>
      <point x="424" y="274" type="curve"/>
      <point x="424" y="165"/>
      <point x="424" y="89"/>
      <point x="424" y="0" type="curve"/>
      <point x="758" y="0" type="line"/>
      <point x="758" y="192" type="line"/>
      <point x="713" y="192"/>
      <point x="667" y="192"/>
      <point x="596" y="192" type="curve"/>
      <point x="530" y="192" type="line"/>
      <point x="630" y="99" type="line"/>
      <point x="630" y="154"/>
      <point x="630" y="201"/>
      <point x="630" y="269" type="curve"/>
      <point x="480" y="196" type="line"/>
      <point x="662" y="211"/>
      <point x="755" y="304"/>
      <point x="755" y="445" type="curve" smooth="yes"/>
      <point x="755" y="593"/>
      <point x="626" y="725"/>
      <point x="391" y="725" type="curve" smooth="yes"/>
      <point x="159" y="725"/>
      <point x="32" y="594"/>
      <point x="32" y="445" type="curve" smooth="yes"/>
      <point x="32" y="315"/>
      <point x="112" y="212"/>
      <point x="308" y="196" type="curve"/>
      <point x="158" y="269" type="line"/>
      <point x="158" y="201"/>
      <point x="158" y="154"/>
      <point x="158" y="99" type="curve"/>
      <point x="258" y="192" type="line"/>
      <point x="192" y="192" type="line"/>
      <point x="121" y="192"/>
      <point x="75" y="192"/>
      <point x="30" y="192" type="curve"/>
    </contour>
  </outline>
</glyph>
<glyph name="partialdiff" format="2">
  <advance width="598"/>
  <unicode hex="2202"/>
  <outline>
    <contour>
      <point x="302" y="-16" type="curve" smooth="yes"/>
      <point x="507" y="-16"/>
      <point x="580" y="114"/>
      <point x="580" y="325" type="curve" smooth="yes"/>
      <point x="580" y="616"/>
      <point x="436" y="706"/>
      <point x="259" y="706" type="curve" smooth="yes"/>
      <point x="180" y="706"/>
      <point x="114" y="691"/>
      <point x="51" y="672" type="curve"/>
      <point x="68" y="470" type="line"/>
      <point x="124" y="499"/>
      <point x="189" y="516"/>
      <point x="243" y="516" type="curve"/>
      <point x="334" y="516"/>
      <point x="354" y="467"/>
      <point x="354" y="335" type="curve" smooth="yes"/>
      <point x="354" y="212"/>
      <point x="337" y="161"/>
      <point x="301" y="161" type="curve"/>
      <point x="265" y="161"/>
      <point x="244" y="196"/>
      <point x="244" y="229" type="curve" smooth="yes"/>
      <point x="244" y="261"/>
      <point x="264" y="294"/>
      <point x="300" y="294" type="curve"/>
      <point x="314" y="294"/>
      <point x="342" y="289"/>
      <point x="368" y="260" type="curve"/>
      <point x="414" y="317"/>
      <point x="401" y="366"/>
      <point x="358" y="423" type="curve"/>
      <point x="337" y="404" type="line"/>
      <point x="313" y="422"/>
      <point x="257" y="437"/>
      <point x="213" y="437" type="curve" smooth="yes"/>
      <point x="98" y="437"/>
      <point x="18" y="366"/>
      <point x="18" y="239" type="curve" smooth="yes"/>
      <point x="18" y="105"/>
      <point x="100" y="-16"/>
    </contour>
  </outline>
</glyph>
<glyph name="increment" format="2">
  <advance width="757"/>
  <unicode hex="2206"/>
  <outline>
    <contour>
      <point x="30" y="0" type="line"/>
      <point x="286" y="0" type="line"/>
      <point x="286" y="127" type="line"/>
      <point x="296" y="174"/>
      <point x="308" y="229"/>
      <point x="318" y="276" type="curve"/>
      <point x="368" y="510" type="line"/>
      <point x="384" y="510" type="line"/>
      <point x="433" y="273" type="line"/>
      <point x="442" y="229"/>
      <point x="453" y="176"/>
      <point x="463" y="127" type="curve"/>
      <point x="463" y="0" type="line"/>
      <point x="727" y="0" type="line"/>
      <point x="727" y="134" type="line"/>
      <point x="708" y="191"/>
      <point x="686" y="255"/>
      <point x="667" y="313" type="curve"/>
      <point x="596" y="524" type="line"/>
      <point x="572" y="598"/>
      <point x="553" y="652"/>
      <point x="533" y="713" type="curve"/>
      <point x="224" y="713" type="line"/>
      <point x="205" y="655"/>
      <point x="185" y="598"/>
      <point x="161" y="525" type="curve"/>
      <point x="91" y="317" type="line"/>
      <point x="72" y="259"/>
      <point x="49" y="193"/>
      <point x="30" y="135" type="curve"/>
    </contour>
    <contour>
      <point x="181" y="0" type="line"/>
      <point x="581" y="0" type="line"/>
      <point x="581" y="200" type="line"/>
      <point x="181" y="200" type="line"/>
    </contour>
  </outline>
</glyph>
<glyph name="summation" format="2">
  <advance width="694"/>
  <unicode hex="2211"/>
  <outline>
    <contour>
      <point x="30" y="-192" type="line"/>
      <point x="654" y="-192" type="line"/>
      <point x="654" y="9" type="line"/>
      <point x="596" y="9"/>
      <point x="502" y="9"/>
      <point x="437" y="9" type="curve"/>
      <point x="317" y="9" type="line"/>
      <point x="315" y="-61" type="line"/>
      <point x="403" y="60" type="line"/>
      <point x="454" y="130"/>
      <point x="508" y="204"/>
      <point x="559" y="274" type="curve"/>
      <point x="509" y="338"/>
      <point x="456" y="405"/>
      <point x="405" y="470" type="curve"/>
      <point x="318" y="581" type="line"/>
      <point x="311" y="512" type="line"/>
      <point x="446" y="512" type="line"/>
      <point x="507" y="512"/>
      <point x="576" y="512"/>
      <point x="650" y="512" type="curve"/>
      <point x="650" y="713" type="line"/>
      <point x="50" y="713" type="line"/>
      <point x="50" y="552" type="line"/>
      <point x="111" y="478"/>
      <point x="170" y="407"/>
      <point x="230" y="334" type="curve"/>
      <point x="347" y="192" type="line"/>
      <point x="347" y="371" type="line"/>
      <point x="238" y="220" type="line"/>
      <point x="175" y="132"/>
      <point x="87" y="10"/>
      <point x="30" y="-69" type="curve"/>
    </contour>
  </outline>
</glyph>
<glyph name="divisionslash" format="2">
  <advance width="444"/>
  <unicode hex="2215"/>
  <outline>
    <contour>
      <point x="15" y="0" type="curve"/>
      <point x="216" y="0" type="line"/>
      <point x="238" y="74"/>
      <point x="257" y="137"/>
      <point x="284" y="228" type="curve"/>
      <point x="357" y="474" type="line"/>
      <point x="386" y="571"/>
      <point x="406" y="636"/>
      <point x="429" y="713" type="curve"/>
      <point x="228" y="713" type="line"/>
      <point x="205" y="636"/>
      <point x="185" y="570"/>
      <point x="157" y="476" type="curve"/>
      <point x="83" y="228" type="line"/>
      <point x="56" y="137"/>
      <point x="37" y="74"/>
    </contour>
  </outline>
</glyph>
<glyph name="approxequal" format="2">
  <advance width="590"/>
  <unicode hex="2248"/>
  <outline>
    <contour>
      <point x="402" y="311" type="curve" smooth="yes"/>
      <point x="488" y="311"/>
      <point x="540" y="396"/>
      <point x="540" y="532" type="curve"/>
      <point x="415" y="532" type="line"/>
      <point x="409" y="514"/>
      <point x="400" y="499"/>
      <point x="377" y="499" type="curve"/>
      <point x="334" y="499"/>
      <point x="292" y="554"/>
      <point x="196" y="554" type="curve" smooth="yes"/>
      <point x="104" y="554"/>
      <point x="50" y="468"/>
      <point x="50" y="333" type="curve"/>
      <point x="175" y="333" type="line"/>
      <point x="181" y="351"/>
      <point x="193" y="366"/>
      <point x="218" y="366" type="curve"/>
      <point x="256" y="366"/>
      <point x="303" y="311"/>
    </contour>
    <contour>
      <point x="402" y="52" type="curve" smooth="yes"/>
      <point x="488" y="52"/>
      <point x="540" y="137"/>
      <point x="540" y="273" type="curve"/>
      <point x="415" y="273" type="line"/>
      <point x="409" y="255"/>
      <point x="400" y="240"/>
      <point x="377" y="240" type="curve"/>
      <point x="334" y="240"/>
      <point x="292" y="295"/>
      <point x="196" y="295" type="curve" smooth="yes"/>
      <point x="104" y="295"/>
      <point x="50" y="209"/>
      <point x="50" y="74" type="curve"/>
      <point x="175" y="74" type="line"/>
      <point x="181" y="92"/>
      <point x="193" y="107"/>
      <point x="218" y="107" type="curve"/>
      <point x="256" y="107"/>
      <point x="303" y="52"/>
    </contour>
  </outline>
</glyph>
<glyph name="lessequal" format="2">
  <advance width="590"/>
  <unicode hex="2264"/>
  <outline>
    <contour>
      <point x="550" y="213" type="curve"/>
      <point x="550" y="413" type="line"/>
      <point x="503" y="428"/>
      <point x="456" y="443"/>
      <point x="409" y="458" type="curve"/>
      <point x="335" y="481" type="line"/>
      <point x="335" y="497" type="line"/>
      <point x="409" y="520" type="line"/>
      <point x="456" y="535"/>
      <point x="503" y="550"/>
      <point x="550" y="565" type="curve"/>
      <point x="550" y="765" type="line"/>
      <point x="475" y="739"/>
      <point x="404" y="713"/>
      <point x="342" y="691" type="curve"/>
      <point x="248" y="658" type="line"/>
      <point x="186" y="636"/>
      <point x="115" y="610"/>
      <point x="40" y="584" type="curve"/>
      <point x="40" y="394" type="line"/>
      <point x="115" y="368"/>
      <point x="186" y="342"/>
      <point x="248" y="320" type="curve"/>
      <point x="342" y="287" type="line"/>
      <point x="404" y="265"/>
      <point x="475" y="239"/>
    </contour>
    <contour>
      <point x="40" y="0" type="line"/>
      <point x="115" y="0"/>
      <point x="191" y="0"/>
      <point x="248" y="0" type="curve"/>
      <point x="342" y="0" type="line"/>
      <point x="399" y="0"/>
      <point x="475" y="0"/>
      <point x="550" y="0" type="curve"/>
      <point x="550" y="190" type="line"/>
      <point x="475" y="190"/>
      <point x="399" y="190"/>
      <point x="342" y="190" type="curve"/>
      <point x="248" y="190" type="line"/>
      <point x="191" y="190"/>
      <point x="115" y="190"/>
      <point x="40" y="190" type="curve"/>
    </contour>
  </outline>
</glyph>
<glyph name="lozenge" format="2">
  <advance width="658"/>
  <unicode hex="25CA"/>
  <outline>
    <contour>
      <point x="201" y="0" type="curve"/>
      <point x="457" y="0" type="line"/>
      <point x="512" y="104"/>
      <point x="568" y="209"/>
      <point x="623" y="313" type="curve"/>
      <point x="568" y="417"/>
      <point x="512" y="522"/>
      <point x="457" y="626" type="curve"/>
      <point x="201" y="626" type="line"/>
      <point x="146" y="522"/>
      <point x="90" y="417"/>
      <point x="35" y="313" type="curve"/>
      <point x="90" y="209"/>
      <point x="146" y="104"/>
    </contour>
    <contour>
      <point x="322" y="153" type="line"/>
      <point x="296" y="206"/>
      <point x="270" y="260"/>
      <point x="244" y="313" type="curve"/>
      <point x="270" y="366"/>
      <point x="296" y="420"/>
      <point x="322" y="473" type="curve"/>
      <point x="336" y="473" type="line"/>
      <point x="362" y="420"/>
      <point x="388" y="366"/>
      <point x="414" y="313" type="curve"/>
      <point x="388" y="260"/>
      <point x="362" y="206"/>
      <point x="336" y="153" type="curve"/>
    </contour>
  </outline>
</glyph>
<glyph name="H.bar" format="2">
  <advance width="751"/>
  <anchor x="376" y="0" name="bottom"/>
  <anchor x="376" y="357" name="center"/>
  <anchor x="376" y="713" name="top"/>
  <anchor x="38" y="713" name="topleft"/>
  <outline>
    <contour>
      <point x="459" y="0" type="curve"/>
      <point x="705" y="0" type="line"/>
      <point x="705" y="74"/>
      <point x="705" y="138"/>
      <point x="705" y="229" type="curve"/>
      <point x="705" y="474" type="line"/>
      <point x="705" y="569"/>
      <point x="705" y="636"/>
      <point x="705" y="713" type="curve"/>
      <point x="459" y="713" type="line"/>
      <point x="459" y="636"/>
      <point x="459" y="569"/>
      <point x="459" y="474" type="curve"/>
      <point x="459" y="229" type="line"/>
      <point x="459" y="138"/>
      <point x="459" y="74"/>
    </contour>
    <contour>
      <point x="46" y="0" type="curve"/>
      <point x="292" y="0" type="line"/>
      <point x="292" y="74"/>
      <point x="292" y="138"/>
      <point x="292" y="229" type="curve"/>
      <point x="292" y="474" type="line"/>
      <point x="292" y="569"/>
      <point x="292" y="636"/>
      <point x="292" y="713" type="curve"/>
      <point x="46" y="713" type="line"/>
      <point x="46" y="636"/>
      <point x="46" y="569"/>
      <point x="46" y="474" type="curve"/>
      <point x="46" y="229" type="line"/>
      <point x="46" y="138"/>
      <point x="46" y="74"/>
    </contour>
    <contour>
      <point x="232" y="231" type="line"/>
      <point x="522" y="231" type="line"/>
      <point x="522" y="423" type="line"/>
      <point x="232" y="423" type="line"/>
    </contour>
  </outline>
</glyph>
<glyph name="_exclam" format="2">
  <advance width="295"/>
  <outline>
    <contour>
      <point x="59" y="283" type="curve"/>
      <point x="238" y="285" type="line"/>
      <point x="247" y="438"/>
      <point x="256" y="589"/>
      <point x="265" y="739" type="curve"/>
      <point x="32" y="733" type="line"/>
      <point x="41" y="585"/>
      <point x="50" y="435"/>
    </contour>
  </outline>
</glyph>
<glyph name="_notequal" format="2">
  <advance width="590"/>
  <outline>
    <contour>
      <point x="281" y="-29" type="line"/>
      <point x="301" y="45"/>
      <point x="319" y="112"/>
      <point x="335" y="172" type="curve"/>
      <point x="398" y="408" type="line"/>
      <point x="414" y="468"/>
      <point x="433" y="536"/>
      <point x="452" y="609" type="curve"/>
      <point x="307" y="648" type="line"/>
      <point x="288" y="575"/>
      <point x="270" y="507"/>
      <point x="254" y="447" type="curve"/>
      <point x="190" y="211" type="line"/>
      <point x="174" y="151"/>
      <point x="156" y="83"/>
      <point x="137" y="10" type="curve"/>
    </contour>
  </outline>
</glyph>
<glyph name="_slash.Lslash" format="2">
  <advance width="607"/>
  <anchor x="292" y="357" name="_center"/>
  <outline>
    <contour>
      <point x="27" y="224" type="line"/>
      <point x="100" y="246"/>
      <point x="168" y="266"/>
      <point x="230" y="284" type="curve"/>
      <point x="284" y="300" type="line"/>
      <point x="346" y="318"/>
      <point x="415" y="339"/>
      <point x="487" y="360" type="curve"/>
      <point x="439" y="524" type="line"/>
      <point x="366" y="503"/>
      <point x="297" y="482"/>
      <point x="236" y="464" type="curve"/>
      <point x="181" y="448" type="line"/>
      <point x="120" y="430"/>
      <point x="53" y="410"/>
      <point x="-22" y="388" type="curve"/>
    </contour>
  </outline>
</glyph>
<glyph name="_strokeshortcomb.Tbar" format="2">
  <advance width="730"/>
  <anchor x="365" y="357" name="_center"/>
  <outline>
    <contour>
      <point x="145" y="271" type="line"/>
      <point x="214" y="271"/>
      <point x="280" y="271"/>
      <point x="339" y="271" type="curve"/>
      <point x="391" y="271" type="line"/>
      <point x="450" y="271"/>
      <point x="516" y="271"/>
      <point x="585" y="271" type="curve"/>
      <point x="585" y="442" type="line"/>
      <point x="516" y="442"/>
      <point x="450" y="442"/>
      <point x="391" y="442" type="curve"/>
      <point x="339" y="442" type="line"/>
      <point x="280" y="442"/>
      <point x="214" y="442"/>
      <point x="145" y="442" type="curve"/>
    </contour>
  </outline>
</glyph>
<glyph name="brevecomb_acutecomb" format="2">
  <anchor x="300" y="502" name="_top"/>
  <outline>
    <contour>
      <point x="299" y="538" type="curve" smooth="yes"/>
      <point x="443" y="538"/>
      <point x="511" y="598"/>
      <point x="511" y="742" type="curve"/>
      <point x="369" y="742" type="line"/>
      <point x="369" y="701"/>
      <point x="351" y="668"/>
      <point x="299" y="668" type="curve"/>
      <point x="248" y="668"/>
      <point x="230" y="701"/>
      <point x="230" y="748" type="curve"/>
      <point x="88" y="742" type="line"/>
      <point x="88" y="598"/>
      <point x="157" y="538"/>
    </contour>
    <contour>
      <point x="220" y="764" type="curve"/>
      <point x="358" y="765" type="line"/>
      <point x="403" y="825"/>
      <point x="451" y="891"/>
      <point x="500" y="957" type="curve"/>
      <point x="309" y="953" type="line"/>
      <point x="280" y="891"/>
      <point x="250" y="827"/>
    </contour>
  </outline>
</glyph>
<glyph name="brevecomb_gravecomb" format="2">
  <anchor x="299.5" y="502" name="_top"/>
  <outline>
    <contour>
      <point x="299" y="538" type="curve" smooth="yes"/>
      <point x="443" y="538"/>
      <point x="511" y="598"/>
      <point x="511" y="742" type="curve"/>
      <point x="369" y="742" type="line"/>
      <point x="369" y="701"/>
      <point x="351" y="668"/>
      <point x="299" y="668" type="curve"/>
      <point x="248" y="668"/>
      <point x="230" y="701"/>
      <point x="230" y="748" type="curve"/>
      <point x="88" y="742" type="line"/>
      <point x="88" y="598"/>
      <point x="157" y="538"/>
    </contour>
    <contour>
      <point x="262" y="764" type="curve"/>
      <point x="400" y="765" type="line"/>
      <point x="370" y="830"/>
      <point x="339" y="893"/>
      <point x="310" y="957" type="curve"/>
      <point x="120" y="953" type="line"/>
      <point x="169" y="887"/>
      <point x="218" y="824"/>
    </contour>
  </outline>
</glyph>
<glyph name="brevecomb_hookabovecomb" format="2">
  <anchor x="299.5" y="502" name="_top"/>
  <outline>
    <contour>
      <point x="299" y="538" type="curve" smooth="yes"/>
      <point x="443" y="538"/>
      <point x="511" y="598"/>
      <point x="511" y="742" type="curve"/>
      <point x="369" y="742" type="line"/>
      <point x="369" y="701"/>
      <point x="351" y="668"/>
      <point x="299" y="668" type="curve"/>
      <point x="248" y="668"/>
      <point x="230" y="701"/>
      <point x="230" y="748" type="curve"/>
      <point x="88" y="742" type="line"/>
      <point x="88" y="598"/>
      <point x="157" y="538"/>
    </contour>
    <contour>
      <point x="231" y="760" type="line"/>
      <point x="335" y="760" type="line"/>
      <point x="335" y="770" type="line"/>
      <point x="410" y="793"/>
      <point x="456" y="829"/>
      <point x="456" y="890" type="curve" smooth="yes"/>
      <point x="456" y="965"/>
      <point x="384" y="985"/>
      <point x="311" y="985" type="curve" smooth="yes"/>
      <point x="243" y="985"/>
      <point x="192" y="970"/>
      <point x="167" y="961" type="curve"/>
      <point x="175" y="856" type="line"/>
      <point x="209" y="869"/>
      <point x="243" y="881"/>
      <point x="277" y="881" type="curve"/>
      <point x="297" y="881"/>
      <point x="309" y="874"/>
      <point x="309" y="861" type="curve" smooth="yes"/>
      <point x="309" y="840"/>
      <point x="271" y="823"/>
      <point x="231" y="807" type="curve"/>
    </contour>
  </outline>
</glyph>
<glyph name="caroncomb.alt" format="2">
  <anchor x="300" y="502" name="_topright"/>
  <outline>
    <contour>
      <point x="324" y="547" type="curve"/>
      <point x="410" y="549" type="line"/>
      <point x="457" y="586"/>
      <point x="516" y="645"/>
      <point x="516" y="720" type="curve" smooth="yes"/>
      <point x="516" y="768"/>
      <point x="479" y="800"/>
      <point x="436" y="804" type="curve"/>
      <point x="341" y="795" type="line"/>
      <point x="341" y="758"/>
      <point x="341" y="721"/>
      <point x="341" y="684" type="curve"/>
      <point x="341" y="637"/>
      <point x="336" y="591"/>
    </contour>
  </outline>
</glyph>
<glyph name="circumflexcomb.narrow" format="2">
  <anchor x="300" y="502" name="_top"/>
  <anchor x="300" y="755" name="top"/>
  <outline>
    <contour>
      <point x="348" y="552" type="curve"/>
      <point x="497" y="554" type="line"/>
      <point x="464" y="627"/>
      <point x="432" y="699"/>
      <point x="399" y="774" type="curve"/>
      <point x="233" y="774" type="line"/>
      <point x="273" y="698"/>
      <point x="312" y="623"/>
    </contour>
    <contour>
      <point x="103" y="554" type="curve"/>
      <point x="254" y="554" type="line"/>
      <point x="289" y="623"/>
      <point x="328" y="699"/>
      <point x="367" y="774" type="curve"/>
      <point x="202" y="774" type="line"/>
      <point x="168" y="699"/>
      <point x="136" y="627"/>
    </contour>
  </outline>
</glyph>
<glyph name="circumflexcomb_acutecomb" format="2">
  <anchor x="300" y="502" name="_top"/>
  <outline>
    <contour>
      <point x="441" y="714" type="curve"/>
      <point x="579" y="715" type="line"/>
      <point x="624" y="775"/>
      <point x="672" y="841"/>
      <point x="721" y="907" type="curve"/>
      <point x="530" y="903" type="line"/>
      <point x="501" y="841"/>
      <point x="471" y="777"/>
    </contour>
    <contour>
      <point x="93" y="554" type="curve"/>
      <point x="240" y="554" type="line"/>
      <point x="286" y="622"/>
      <point x="335" y="692"/>
      <point x="386" y="764" type="curve"/>
      <point x="197" y="764" type="line"/>
      <point x="161" y="692"/>
      <point x="128" y="623"/>
    </contour>
    <contour>
      <point x="362" y="552" type="curve"/>
      <point x="507" y="554" type="line"/>
      <point x="474" y="623"/>
      <point x="439" y="692"/>
      <point x="404" y="764" type="curve"/>
      <point x="214" y="764" type="line"/>
      <point x="266" y="691"/>
      <point x="315" y="621"/>
    </contour>
  </outline>
</glyph>
<glyph name="circumflexcomb_gravecomb" format="2">
  <anchor x="300" y="502" name="_top"/>
  <outline>
    <contour>
      <point x="471" y="713" type="curve"/>
      <point x="609" y="714" type="line"/>
      <point x="579" y="779"/>
      <point x="548" y="842"/>
      <point x="519" y="906" type="curve"/>
      <point x="329" y="902" type="line"/>
      <point x="378" y="836"/>
      <point x="427" y="773"/>
    </contour>
    <contour>
      <point x="93" y="554" type="curve"/>
      <point x="240" y="554" type="line"/>
      <point x="286" y="622"/>
      <point x="335" y="692"/>
      <point x="386" y="764" type="curve"/>
      <point x="197" y="764" type="line"/>
      <point x="161" y="692"/>
      <point x="128" y="623"/>
    </contour>
    <contour>
      <point x="362" y="552" type="curve"/>
      <point x="507" y="554" type="line"/>
      <point x="474" y="623"/>
      <point x="439" y="692"/>
      <point x="404" y="764" type="curve"/>
      <point x="214" y="764" type="line"/>
      <point x="266" y="691"/>
      <point x="315" y="621"/>
    </contour>
  </outline>
</glyph>
<glyph name="circumflexcomb_hookabovecomb.case" format="2">
  <anchor x="300" y="502" name="_top"/>
  <outline>
    <contour>
      <point x="93" y="554" type="curve"/>
      <point x="240" y="554" type="line"/>
      <point x="286" y="615"/>
      <point x="335" y="679"/>
      <point x="386" y="745" type="curve"/>
      <point x="197" y="745" type="line"/>
      <point x="161" y="680"/>
      <point x="128" y="616"/>
    </contour>
    <contour>
      <point x="362" y="552" type="curve"/>
      <point x="507" y="554" type="line"/>
      <point x="474" y="616"/>
      <point x="439" y="680"/>
      <point x="404" y="745" type="curve"/>
      <point x="214" y="745" type="line"/>
      <point x="266" y="679"/>
      <point x="315" y="615"/>
    </contour>
    <contour>
      <point x="445" y="697" type="line"/>
      <point x="549" y="697" type="line"/>
      <point x="549" y="707" type="line"/>
      <point x="624" y="720"/>
      <point x="670" y="756"/>
      <point x="670" y="817" type="curve" smooth="yes"/>
      <point x="670" y="892"/>
      <point x="598" y="912"/>
      <point x="525" y="912" type="curve" smooth="yes"/>
      <point x="457" y="912"/>
      <point x="406" y="897"/>
      <point x="381" y="888" type="curve"/>
      <point x="389" y="783" type="line"/>
      <point x="423" y="796"/>
      <point x="457" y="808"/>
      <point x="491" y="808" type="curve"/>
      <point x="511" y="808"/>
      <point x="523" y="801"/>
      <point x="523" y="788" type="curve" smooth="yes"/>
      <point x="523" y="767"/>
      <point x="485" y="750"/>
      <point x="445" y="744" type="curve"/>
    </contour>
  </outline>
</glyph>
<glyph name="circumflexcomb_hookabovecomb" format="2">
  <anchor x="300" y="502" name="_top"/>
  <outline>
    <contour>
      <point x="362" y="552" type="curve"/>
      <point x="507" y="554" type="line"/>
      <point x="474" y="623"/>
      <point x="439" y="692"/>
      <point x="404" y="764" type="curve"/>
      <point x="214" y="764" type="line"/>
      <point x="266" y="691"/>
      <point x="315" y="621"/>
    </contour>
    <contour>
      <point x="93" y="554" type="curve"/>
      <point x="240" y="554" type="line"/>
      <point x="286" y="622"/>
      <point x="335" y="692"/>
      <point x="386" y="764" type="curve"/>
      <point x="197" y="764" type="line"/>
      <point x="161" y="692"/>
      <point x="128" y="623"/>
    </contour>
    <contour>
      <point x="442" y="714" type="line"/>
      <point x="546" y="714" type="line"/>
      <point x="546" y="724" type="line"/>
      <point x="621" y="747"/>
      <point x="667" y="783"/>
      <point x="667" y="844" type="curve" smooth="yes"/>
      <point x="667" y="919"/>
      <point x="595" y="939"/>
      <point x="522" y="939" type="curve" smooth="yes"/>
      <point x="454" y="939"/>
      <point x="403" y="924"/>
      <point x="378" y="915" type="curve"/>
      <point x="386" y="810" type="line"/>
      <point x="420" y="823"/>
      <point x="454" y="835"/>
      <point x="488" y="835" type="curve"/>
      <point x="508" y="835"/>
      <point x="520" y="828"/>
      <point x="520" y="815" type="curve" smooth="yes"/>
      <point x="520" y="794"/>
      <point x="482" y="777"/>
      <point x="442" y="761" type="curve"/>
    </contour>
  </outline>
</glyph>
<glyph name="circumflexcomb_tildecomb" format="2">
  <anchor x="300" y="502" name="_top"/>
  <outline>
    <contour>
      <point x="385" y="770" type="curve" smooth="yes"/>
      <point x="451" y="770"/>
      <point x="495" y="832"/>
      <point x="495" y="942" type="curve"/>
      <point x="396" y="942" type="line"/>
      <point x="392" y="928"/>
      <point x="383" y="902"/>
      <point x="364" y="902" type="curve"/>
      <point x="336" y="902"/>
      <point x="299" y="961"/>
      <point x="222" y="961" type="curve" smooth="yes"/>
      <point x="151" y="961"/>
      <point x="105" y="899"/>
      <point x="105" y="789" type="curve"/>
      <point x="204" y="789" type="line"/>
      <point x="209" y="803"/>
      <point x="219" y="829"/>
      <point x="240" y="829" type="curve"/>
      <point x="265" y="829"/>
      <point x="305" y="770"/>
    </contour>
    <contour>
      <point x="93" y="554" type="curve"/>
      <point x="240" y="554" type="line"/>
      <point x="286" y="615"/>
      <point x="335" y="679"/>
      <point x="386" y="744" type="curve"/>
      <point x="197" y="744" type="line"/>
      <point x="161" y="679"/>
      <point x="128" y="616"/>
    </contour>
    <contour>
      <point x="362" y="552" type="curve"/>
      <point x="507" y="554" type="line"/>
      <point x="474" y="616"/>
      <point x="439" y="679"/>
      <point x="404" y="744" type="curve"/>
      <point x="214" y="744" type="line"/>
      <point x="266" y="678"/>
      <point x="315" y="614"/>
    </contour>
  </outline>
</glyph>
<glyph name="colonsign.BRACKET.140" format="2">
  <advance width="651"/>
  <outline>
    <contour>
      <point x="393" y="-15" type="curve" smooth="yes"/>
      <point x="471" y="-15"/>
      <point x="556" y="-3"/>
      <point x="611" y="24" type="curve"/>
      <point x="601" y="237" type="line"/>
      <point x="539" y="188"/>
      <point x="479" y="174"/>
      <point x="427" y="174" type="curve"/>
      <point x="318" y="174"/>
      <point x="268" y="253"/>
      <point x="268" y="344" type="curve" smooth="yes"/>
      <point x="268" y="457"/>
      <point x="330" y="509"/>
      <point x="410" y="509" type="curve"/>
      <point x="459" y="509"/>
      <point x="524" y="490"/>
      <point x="598" y="440" type="curve"/>
      <point x="614" y="656" type="line"/>
      <point x="555" y="685"/>
      <point x="465" y="705"/>
      <point x="381" y="705" type="curve" smooth="yes"/>
      <point x="147" y="705"/>
      <point x="24" y="549"/>
      <point x="24" y="343" type="curve" smooth="yes"/>
      <point x="24" y="120"/>
      <point x="167" y="-15"/>
    </contour>
    <contour>
      <point x="138" y="-137" type="curve"/>
      <point x="280" y="-137" type="line"/>
      <point x="296" y="-35"/>
      <point x="313" y="72"/>
      <point x="324" y="139" type="curve"/>
      <point x="182" y="139" type="line"/>
      <point x="171" y="73"/>
      <point x="154" y="-35"/>
    </contour>
    <contour>
      <point x="321" y="-137" type="curve"/>
      <point x="463" y="-137" type="line"/>
      <point x="476" y="-56"/>
      <point x="490" y="30"/>
      <point x="500" y="93" type="curve"/>
      <point x="358" y="93" type="line"/>
      <point x="348" y="30"/>
      <point x="334" y="-56"/>
    </contour>
    <contour>
      <point x="230" y="604" type="curve"/>
      <point x="372" y="604" type="line"/>
      <point x="382" y="667"/>
      <point x="393" y="738"/>
      <point x="403" y="803" type="curve"/>
      <point x="261" y="803" type="line"/>
      <point x="250" y="733"/>
      <point x="239" y="663"/>
    </contour>
    <contour>
      <point x="405" y="560" type="curve"/>
      <point x="547" y="560" type="line"/>
      <point x="558" y="627"/>
      <point x="572" y="716"/>
      <point x="586" y="803" type="curve"/>
      <point x="444" y="803" type="line"/>
      <point x="430" y="716"/>
      <point x="416" y="627"/>
    </contour>
  </outline>
</glyph>
<glyph name="f.calt" format="2">
  <advance width="425"/>
  <outline>
    <contour>
      <point x="82" y="0" type="curve"/>
      <point x="304" y="0" type="line"/>
      <point x="304" y="69"/>
      <point x="304" y="129"/>
      <point x="304" y="213" type="curve"/>
      <point x="304" y="470" type="line"/>
      <point x="294" y="502" type="line"/>
      <point x="294" y="510"/>
      <point x="294" y="523"/>
      <point x="294" y="528" type="curve" smooth="yes"/>
      <point x="294" y="559"/>
      <point x="314" y="570"/>
      <point x="342" y="570" type="curve" smooth="yes"/>
      <point x="364" y="570"/>
      <point x="390" y="563"/>
      <point x="416" y="553" type="curve"/>
      <point x="416" y="735" type="line"/>
      <point x="396" y="741"/>
      <point x="354" y="749"/>
      <point x="304" y="749" type="curve" smooth="yes"/>
      <point x="191" y="749"/>
      <point x="82" y="710"/>
      <point x="82" y="534" type="curve" smooth="yes"/>
      <point x="82" y="471"/>
      <point x="82" y="339"/>
      <point x="82" y="263" type="curve"/>
      <point x="82" y="213" type="line"/>
      <point x="82" y="129"/>
      <point x="82" y="69"/>
    </contour>
    <contour>
      <point x="12" y="339" type="line"/>
      <point x="145" y="339" type="line"/>
      <point x="247" y="339" type="line"/>
      <point x="300" y="339"/>
      <point x="349" y="339"/>
      <point x="407" y="339" type="curve"/>
      <point x="407" y="502" type="line"/>
      <point x="12" y="502" type="line"/>
    </contour>
  </outline>
</glyph>
<glyph name="five.dnom" format="2">
  <advance width="442"/>
  <outline>
    <contour>
      <point x="208" y="-16" type="curve" smooth="yes"/>
      <point x="354" y="-16"/>
      <point x="419" y="52"/>
      <point x="419" y="148" type="curve" smooth="yes"/>
      <point x="419" y="239"/>
      <point x="356" y="288"/>
      <point x="275" y="288" type="curve" smooth="yes"/>
      <point x="250" y="288"/>
      <point x="226" y="282"/>
      <point x="207" y="274" type="curve"/>
      <point x="195" y="274" type="line"/>
      <point x="195" y="291" type="line"/>
      <point x="196" y="316"/>
      <point x="197" y="340"/>
      <point x="199" y="371" type="curve"/>
      <point x="154" y="324" type="line"/>
      <point x="226" y="324" type="line"/>
      <point x="280" y="324"/>
      <point x="342" y="324"/>
      <point x="397" y="324" type="curve"/>
      <point x="397" y="462" type="line"/>
      <point x="49" y="462" type="line"/>
      <point x="49" y="403"/>
      <point x="49" y="340"/>
      <point x="49" y="270" type="curve"/>
      <point x="49" y="187" type="line"/>
      <point x="120" y="174" type="line"/>
      <point x="138" y="189"/>
      <point x="163" y="192"/>
      <point x="181" y="192" type="curve"/>
      <point x="220" y="192"/>
      <point x="239" y="179"/>
      <point x="239" y="156" type="curve" smooth="yes"/>
      <point x="239" y="132"/>
      <point x="224" y="122"/>
      <point x="186" y="122" type="curve"/>
      <point x="143" y="122"/>
      <point x="87" y="141"/>
      <point x="35" y="165" type="curve"/>
      <point x="24" y="16" type="line"/>
      <point x="63" y="-1"/>
      <point x="133" y="-16"/>
    </contour>
  </outline>
</glyph>
<glyph name="four.dnom" format="2">
  <advance width="466"/>
  <outline>
    <contour>
      <point x="222" y="0" type="curve"/>
      <point x="396" y="0" type="line"/>
      <point x="396" y="47"/>
      <point x="396" y="81"/>
      <point x="396" y="139" type="curve"/>
      <point x="396" y="298" type="line"/>
      <point x="396" y="351"/>
      <point x="396" y="405"/>
      <point x="396" y="462" type="curve"/>
      <point x="230" y="462" type="line"/>
      <point x="209" y="436"/>
      <point x="188" y="409"/>
      <point x="167" y="383" type="curve"/>
      <point x="111" y="310" type="line"/>
      <point x="81" y="273"/>
      <point x="39" y="219"/>
      <point x="15" y="188" type="curve"/>
      <point x="15" y="78" type="line"/>
      <point x="283" y="78" type="line"/>
      <point x="332" y="78"/>
      <point x="402" y="78"/>
      <point x="446" y="78" type="curve"/>
      <point x="446" y="224" type="line"/>
      <point x="402" y="224"/>
      <point x="332" y="224"/>
      <point x="283" y="224" type="curve"/>
      <point x="270" y="204" type="line"/>
      <point x="145" y="204" type="line"/>
      <point x="149" y="196" type="line"/>
      <point x="169" y="221"/>
      <point x="189" y="248"/>
      <point x="208" y="272" type="curve"/>
      <point x="283" y="367" type="line"/>
      <point x="306" y="396"/>
      <point x="328" y="425"/>
      <point x="352" y="455" type="curve"/>
      <point x="243" y="394" type="line"/>
      <point x="243" y="350"/>
      <point x="243" y="306"/>
      <point x="243" y="262" type="curve"/>
      <point x="243" y="159" type="line"/>
      <point x="222" y="139" type="line"/>
      <point x="222" y="81"/>
      <point x="222" y="47"/>
    </contour>
  </outline>
</glyph>
<glyph name="guarani.BRACKET.140" format="2">
  <advance width="693"/>
  <outline>
    <contour>
      <point x="395" y="-14" type="curve" smooth="yes"/>
      <point x="496" y="-14"/>
      <point x="605" y="1"/>
      <point x="647" y="17" type="curve"/>
      <point x="619" y="221" type="line"/>
      <point x="552" y="184"/>
      <point x="501" y="169"/>
      <point x="417" y="169" type="curve"/>
      <point x="317" y="169"/>
      <point x="266" y="249"/>
      <point x="266" y="343" type="curve" smooth="yes"/>
      <point x="266" y="461"/>
      <point x="336" y="510"/>
      <point x="414" y="510" type="curve"/>
      <point x="466" y="510"/>
      <point x="539" y="490"/>
      <point x="621" y="442" type="curve"/>
      <point x="637" y="656" type="line"/>
      <point x="578" y="683"/>
      <point x="487" y="706"/>
      <point x="394" y="706" type="curve" smooth="yes"/>
      <point x="156" y="706"/>
      <point x="24" y="559"/>
      <point x="24" y="344" type="curve" smooth="yes"/>
      <point x="24" y="130"/>
      <point x="164" y="-14"/>
    </contour>
    <contour>
      <point x="428" y="12" type="curve"/>
      <point x="647" y="17" type="line"/>
      <point x="647" y="90"/>
      <point x="647" y="143"/>
      <point x="647" y="199" type="curve"/>
      <point x="647" y="264"/>
      <point x="647" y="310"/>
      <point x="647" y="366" type="curve"/>
      <point x="428" y="366" type="line"/>
      <point x="428" y="309"/>
      <point x="428" y="263"/>
      <point x="428" y="199" type="curve"/>
      <point x="428" y="142"/>
      <point x="428" y="85"/>
    </contour>
    <contour>
      <point x="306" y="-137" type="curve"/>
      <point x="466" y="-137" type="line"/>
      <point x="466" y="-57"/>
      <point x="466" y="28"/>
      <point x="466" y="93" type="curve"/>
      <point x="306" y="93" type="line"/>
      <point x="306" y="28"/>
      <point x="306" y="-57"/>
    </contour>
    <contour>
      <point x="306" y="604" type="curve"/>
      <point x="466" y="604" type="line"/>
      <point x="466" y="663"/>
      <point x="466" y="735"/>
      <point x="466" y="803" type="curve"/>
      <point x="306" y="803" type="line"/>
      <point x="306" y="735"/>
      <point x="306" y="663"/>
    </contour>
  </outline>
</glyph>
<glyph name="hookabovecomb.case" format="2">
  <anchor x="300" y="502" name="_top"/>
  <anchor x="300" y="793" name="top"/>
  <outline>
    <contour>
      <point x="219" y="554" type="line"/>
      <point x="339" y="554" type="line"/>
      <point x="339" y="566" type="line"/>
      <point x="425" y="572"/>
      <point x="478" y="613"/>
      <point x="478" y="684" type="curve" smooth="yes"/>
      <point x="478" y="770"/>
      <point x="395" y="793"/>
      <point x="311" y="793" type="curve" smooth="yes"/>
      <point x="233" y="793"/>
      <point x="174" y="776"/>
      <point x="145" y="765" type="curve"/>
      <point x="154" y="644" type="line"/>
      <point x="194" y="660"/>
      <point x="233" y="673"/>
      <point x="272" y="673" type="curve"/>
      <point x="295" y="673"/>
      <point x="309" y="665"/>
      <point x="309" y="650" type="curve" smooth="yes"/>
      <point x="309" y="626"/>
      <point x="265" y="608"/>
      <point x="219" y="608" type="curve"/>
    </contour>
  </outline>
</glyph>
<glyph name="seven.dnom" format="2">
  <advance width="432"/>
  <outline>
    <contour>
      <point x="45" y="0" type="curve"/>
      <point x="239" y="0" type="line"/>
      <point x="261" y="47"/>
      <point x="283" y="93"/>
      <point x="305" y="140" type="curve"/>
      <point x="343" y="221" type="line"/>
      <point x="365" y="267"/>
      <point x="387" y="314"/>
      <point x="409" y="360" type="curve"/>
      <point x="409" y="470" type="line"/>
      <point x="19" y="470" type="line"/>
      <point x="19" y="324" type="line"/>
      <point x="75" y="324"/>
      <point x="124" y="324"/>
      <point x="174" y="324" type="curve"/>
      <point x="261" y="324" type="line"/>
      <point x="221" y="360" type="line"/>
      <point x="207" y="331"/>
      <point x="193" y="302"/>
      <point x="179" y="273" type="curve"/>
      <point x="121" y="154" type="line"/>
      <point x="96" y="103"/>
      <point x="71" y="52"/>
    </contour>
  </outline>
</glyph>
<glyph name="three.dnom" format="2">
  <advance width="444"/>
  <outline>
    <contour>
      <point x="211" y="-15" type="curve" smooth="yes"/>
      <point x="356" y="-15"/>
      <point x="421" y="43"/>
      <point x="421" y="131" type="curve" smooth="yes"/>
      <point x="421" y="202"/>
      <point x="373" y="236"/>
      <point x="321" y="245" type="curve"/>
      <point x="321" y="256" type="line"/>
      <point x="372" y="265"/>
      <point x="410" y="294"/>
      <point x="410" y="348" type="curve" smooth="yes"/>
      <point x="410" y="426"/>
      <point x="343" y="477"/>
      <point x="214" y="477" type="curve" smooth="yes"/>
      <point x="142" y="477"/>
      <point x="76" y="461"/>
      <point x="31" y="447" type="curve"/>
      <point x="44" y="296" type="line"/>
      <point x="87" y="318"/>
      <point x="135" y="339"/>
      <point x="180" y="339" type="curve"/>
      <point x="212" y="339"/>
      <point x="231" y="329"/>
      <point x="231" y="310" type="curve" smooth="yes"/>
      <point x="231" y="289"/>
      <point x="213" y="281"/>
      <point x="177" y="281" type="curve"/>
      <point x="154" y="281"/>
      <point x="134" y="281"/>
      <point x="113" y="281" type="curve"/>
      <point x="113" y="181" type="line"/>
      <point x="137" y="181"/>
      <point x="163" y="181"/>
      <point x="188" y="181" type="curve"/>
      <point x="225" y="181"/>
      <point x="241" y="172"/>
      <point x="241" y="154" type="curve" smooth="yes"/>
      <point x="241" y="134"/>
      <point x="227" y="123"/>
      <point x="189" y="123" type="curve"/>
      <point x="141" y="123"/>
      <point x="88" y="142"/>
      <point x="35" y="166" type="curve"/>
      <point x="24" y="17" type="line"/>
      <point x="64" y="0"/>
      <point x="134" y="-15"/>
    </contour>
  </outline>
</glyph>
<glyph name="tildecomb.case" format="2">
  <anchor x="300" y="502" name="_top"/>
  <anchor x="300" y="747" name="top"/>
  <outline>
    <contour>
      <point x="393" y="539" type="curve" smooth="yes"/>
      <point x="465" y="539"/>
      <point x="513" y="610"/>
      <point x="513" y="737" type="curve"/>
      <point x="405" y="737" type="line"/>
      <point x="400" y="720"/>
      <point x="391" y="690"/>
      <point x="370" y="690" type="curve"/>
      <point x="339" y="690"/>
      <point x="299" y="758"/>
      <point x="215" y="758" type="curve" smooth="yes"/>
      <point x="138" y="758"/>
      <point x="87" y="687"/>
      <point x="87" y="560" type="curve"/>
      <point x="195" y="560" type="line"/>
      <point x="201" y="577"/>
      <point x="212" y="607"/>
      <point x="235" y="607" type="curve"/>
      <point x="262" y="607"/>
      <point x="306" y="539"/>
    </contour>
  </outline>
</glyph>
<glyph name="tildecomb.narrow" format="2">
  <anchor x="300" y="502" name="_top"/>
  <anchor x="300" y="747" name="top"/>
  <outline>
    <contour>
      <point x="384" y="539" type="curve" smooth="yes"/>
      <point x="450" y="539"/>
      <point x="494" y="611"/>
      <point x="494" y="737" type="curve"/>
      <point x="388" y="737" type="line"/>
      <point x="383" y="720"/>
      <point x="377" y="690"/>
      <point x="361" y="690" type="curve"/>
      <point x="337" y="690"/>
      <point x="300" y="758"/>
      <point x="225" y="758" type="curve" smooth="yes"/>
      <point x="154" y="758"/>
      <point x="106" y="687"/>
      <point x="106" y="560" type="curve"/>
      <point x="212" y="560" type="line"/>
      <point x="218" y="577"/>
      <point x="228" y="607"/>
      <point x="245" y="607" type="curve"/>
      <point x="264" y="607"/>
      <point x="306" y="539"/>
    </contour>
  </outline>
</glyph>
<glyph name="two.dnom" format="2">
  <advance width="436"/>
  <outline>
    <contour>
      <point x="29" y="0" type="line"/>
      <point x="407" y="0" type="line"/>
      <point x="407" y="146" type="line"/>
      <point x="358" y="146"/>
      <point x="308" y="146"/>
      <point x="258" y="146" type="curve"/>
      <point x="195" y="146" type="line"/>
      <point x="214" y="112" type="line"/>
      <point x="277" y="149" type="line"/>
      <point x="368" y="203"/>
      <point x="405" y="260"/>
      <point x="405" y="327" type="curve" smooth="yes"/>
      <point x="405" y="421"/>
      <point x="338" y="477"/>
      <point x="215" y="477" type="curve" smooth="yes"/>
      <point x="144" y="477"/>
      <point x="73" y="460"/>
      <point x="26" y="443" type="curve"/>
      <point x="39" y="282" type="line"/>
      <point x="83" y="310"/>
      <point x="131" y="334"/>
      <point x="173" y="334" type="curve"/>
      <point x="207" y="334"/>
      <point x="225" y="322"/>
      <point x="225" y="298" type="curve" smooth="yes"/>
      <point x="225" y="253"/>
      <point x="181" y="217"/>
      <point x="99" y="160" type="curve"/>
      <point x="76" y="143"/>
      <point x="52" y="126"/>
      <point x="29" y="109" type="curve"/>
    </contour>
  </outline>
</glyph>
<glyph name="won.BRACKET.140" format="2">
  <advance width="1112"/>
  <outline>
    <contour>
      <point x="221" y="0" type="curve"/>
      <point x="486" y="0" type="line"/>
      <point x="494" y="56"/>
      <point x="504" y="126"/>
      <point x="512" y="182" type="curve"/>
      <point x="536" y="349" type="line"/>
      <point x="551" y="349" type="line"/>
      <point x="578" y="181" type="line"/>
      <point x="587" y="125"/>
      <point x="598" y="56"/>
      <point x="607" y="0" type="curve"/>
      <point x="885" y="0" type="line"/>
      <point x="901" y="66"/>
      <point x="921" y="147"/>
      <point x="938" y="217" type="curve"/>
      <point x="991" y="435" type="line"/>
      <point x="1007" y="501"/>
      <point x="1032" y="604"/>
      <point x="1053" y="690" type="curve"/>
      <point x="787" y="690" type="line"/>
      <point x="780" y="620"/>
      <point x="772" y="541"/>
      <point x="766" y="480" type="curve"/>
      <point x="746" y="282" type="line"/>
      <point x="731" y="282" type="line"/>
      <point x="705" y="472" type="line"/>
      <point x="696" y="537"/>
      <point x="684" y="625"/>
      <point x="675" y="690" type="curve"/>
      <point x="434" y="690" type="line"/>
      <point x="425" y="620"/>
      <point x="416" y="548"/>
      <point x="407" y="478" type="curve"/>
      <point x="382" y="282" type="line"/>
      <point x="367" y="282" type="line"/>
      <point x="347" y="476" type="line"/>
      <point x="340" y="545"/>
      <point x="332" y="621"/>
      <point x="325" y="690" type="curve"/>
      <point x="59" y="690" type="line"/>
      <point x="79" y="605"/>
      <point x="103" y="503"/>
      <point x="120" y="430" type="curve"/>
      <point x="170" y="217" type="line"/>
      <point x="186" y="150"/>
      <point x="204" y="72"/>
    </contour>
    <contour>
      <point x="20" y="283" type="line"/>
      <point x="95" y="283"/>
      <point x="166" y="283"/>
      <point x="228" y="283" type="curve"/>
      <point x="228" y="433" type="line"/>
      <point x="166" y="433"/>
      <point x="95" y="433"/>
      <point x="20" y="433" type="curve"/>
    </contour>
    <contour>
      <point x="884" y="283" type="line"/>
      <point x="946" y="283"/>
      <point x="1017" y="283"/>
      <point x="1092" y="283" type="curve"/>
      <point x="1092" y="433" type="line"/>
      <point x="1017" y="433"/>
      <point x="946" y="433"/>
      <point x="884" y="433" type="curve"/>
    </contour>
  </outline>
</glyph>
